<svg width="185" height="165" viewBox="0 0 185 165" fill="none" xmlns="http://www.w3.org/2000/svg">
<g clip-path="url(#clip0_607_2)">
<path d="M82.2223 5.15633C82.2223 2.90047 83.6676 0.902422 85.8195 0.225664C87.9714 -0.451094 90.2839 0.35457 91.5686 2.19148L163.513 105.316C164.605 106.896 164.734 108.958 163.866 110.666C162.999 112.374 161.233 113.438 159.306 113.438H87.3612C84.5348 113.438 82.2223 111.117 82.2223 108.281V5.15633ZM68.1225 31.0987C70.3707 31.711 71.9445 33.7413 71.9445 36.0938V108.281C71.9445 111.117 69.632 113.438 66.8056 113.438H25.6945C23.8638 113.438 22.1615 112.471 21.2622 110.859C20.3629 109.248 20.3308 107.315 21.2301 105.703L62.3412 33.5157C63.4975 31.4854 65.8742 30.4864 68.1225 31.0987ZM1.83079 130.292C0.899362 127.005 3.37245 123.75 6.77697 123.75H178.223C181.628 123.75 184.101 127.005 183.169 130.292L181.885 134.9C176.874 152.722 160.719 165 142.283 165H42.7171C24.2813 165 8.12592 152.722 3.11551 134.933L1.83079 130.324V130.292Z" fill="#F2F2F2"/>
</g>
<defs>
<clipPath id="clip0_607_2">
<rect width="185" height="165" fill="white"/>
</clipPath>
</defs>
</svg>
