<svg width="549" height="90" viewBox="0 0 549 90" fill="none" xmlns="http://www.w3.org/2000/svg">
<g clip-path="url(#clip0_549_2)">
<path d="M42.53 0C42.2 0 41.8801 0.26 41.4901 0.39C40.8401 0.59 40.06 0.59 38.82 0.65C37.32 0.71 24.13 0.71 21.66 0.71C18.28 0.71 15.29 0.51 12.3 0.51C11.32 0.51 10.8 0.64 10.8 1.16C10.8 1.55 11.26 1.68 11.9 1.68C12.81 1.68 13.92 1.74 14.44 1.87C16.59 2.33 17.11 3.37 17.23 5.58C17.36 7.66 17.36 9.48 17.36 19.36V30.8C17.36 37.04 17.36 41.92 17.04 44.64C16.78 46.53 16.46 47.96 15.15 48.22C14.57 48.35 13.79 48.48 12.81 48.48C12.1 48.48 11.84 48.67 11.84 49C11.84 49.52 12.3 49.65 13.2 49.65C15.67 49.65 19.77 49.45 21.46 49.45C23.15 49.45 27.25 49.65 31.34 49.65C32.32 49.65 32.7701 49.45 32.7701 49C32.7701 48.67 32.51 48.48 31.66 48.48C30.75 48.48 29.32 48.35 28.41 48.22C26.46 47.96 26.07 46.53 25.87 44.64C25.54 41.91 25.54 37.04 25.54 30.8V25.53C25.54 25.07 25.67 24.95 26 24.95C27.11 24.95 34 24.95 35.62 25.15C37.63 25.41 38.61 26.58 38.93 27.49C39.19 28.27 39.32 29.05 39.32 29.5C39.32 29.95 39.45 30.41 39.84 30.41C40.49 30.41 40.4901 29.76 40.4901 29.18C40.4901 28.72 40.62 25.73 40.75 24.43C40.95 22.42 41.2701 20.79 41.2701 20.4C41.2701 20.01 41.1401 19.81 40.8801 19.81C40.4901 19.81 40.3601 20.07 40.0401 20.46C39.1301 21.7 38.09 21.7 34.32 21.7C31.98 21.7 27.75 21.76 26 21.76C25.61 21.76 25.54 21.57 25.54 21.18V4.94C25.54 4.23 25.74 4.03 26.12 4.03C28.07 4.09 33.8601 4.16 36.1301 4.23C38.6001 4.29 39.96 5.27 40.42 6.18C40.81 7.09 40.8101 8.13 40.8101 8.65C40.8701 9.36 41 9.69 41.46 9.69C41.92 9.69 42.0401 9.3 42.1101 8.78C42.2401 8 42.37 4.16 42.44 3.51C42.63 1.82 42.96 1.04 42.96 0.59C42.96 0.26 42.76 0.01 42.5 0.01L42.53 0Z" fill="#F2F2F2"/>
<path d="M92.9 7.86937C90.56 7.86937 86.98 8.06937 86.2 8.06937C86 8.06937 82.37 7.86937 79.44 7.86937C78.53 7.86937 78.21 8.06937 78.21 8.44937C78.21 8.82937 78.54 9.02937 79.18 9.02937C79.96 9.09937 80.8 9.15937 81.26 9.28937C83.15 9.61937 83.47 10.5294 83.6 12.4094C83.67 14.1694 83.8 15.5294 83.8 23.8494V30.7394C83.8 36.3994 83.74 41.5294 80.55 44.5194C78.34 46.6694 75.35 47.3094 72.94 47.3094C71.12 47.3094 68.59 47.1194 66.11 45.2294C63.19 43.0194 61.63 39.7094 61.63 31.7094V23.8394C61.63 15.7794 61.63 14.1594 61.76 12.3994C61.82 10.5194 62.28 9.53937 63.84 9.27937C64.49 9.14937 64.94 9.08938 65.53 9.01938C66.11 9.01938 66.51 8.81937 66.51 8.43937C66.51 8.05937 66.12 7.85938 65.21 7.85938C63.19 7.85938 58.97 8.05938 57.73 8.05938C56.23 8.05938 52.27 7.85938 49.34 7.85938C48.43 7.85938 47.97 7.98937 47.97 8.37937C47.97 8.76937 48.36 9.02937 49.01 9.02937C49.79 9.09937 50.83 9.15937 51.35 9.28937C53.1 9.67937 53.49 10.5294 53.62 12.2794C53.75 14.0994 53.75 15.3994 53.75 23.8494V31.9794C53.75 40.0394 55.96 44.0694 58.88 46.5394C62.91 50.0494 68.37 50.3694 71.75 50.3694C75.52 50.3694 79.68 49.7194 83.65 46.4694C88.59 42.4394 89.18 35.8694 89.18 29.6994V23.8494C89.18 15.5294 89.24 14.0994 89.38 12.3494C89.51 10.3994 89.9 9.55937 91.39 9.28937C92.1 9.09937 92.43 9.09937 93.08 9.02937C93.79 9.02937 94.12 8.82937 94.12 8.44937C94.12 8.06937 93.73 7.86937 92.88 7.86937H92.9Z" fill="#F2F2F2"/>
<path d="M130.54 40.5006C130.08 40.5006 130.02 41.0206 129.89 41.5406C129.7 42.9106 128.98 44.4006 128.2 45.1206C126.7 46.4906 124.49 46.5506 121.5 46.5506C116.95 46.5506 115.52 46.1606 114.61 45.2506C113.44 44.2806 113.44 40.4406 113.44 33.6206V24.0006C113.44 15.4206 113.44 14.1906 113.57 12.4306C113.7 10.4806 114.15 9.57063 115.72 9.31063C116.43 9.12063 117.22 9.12063 117.86 9.05063C118.64 9.05063 118.97 8.85063 118.97 8.47063C118.97 8.09063 118.64 7.89062 117.73 7.89062C115.52 7.89062 110.84 8.09063 109.61 8.09063C107.92 8.09063 104.41 7.89062 101.68 7.89062C100.77 7.89062 100.31 8.09063 100.31 8.47063C100.31 8.85063 100.7 9.05063 101.35 9.05063C102.07 9.12063 102.85 9.18063 103.3 9.31063C105.05 9.70063 105.51 10.5506 105.64 12.3706C105.77 14.1206 105.77 15.4206 105.77 23.8706V33.6206C105.77 38.3706 105.77 42.5306 105.51 44.8006C105.32 46.9506 104.93 47.9906 103.56 48.3106C103.1 48.4406 102.46 48.4406 101.74 48.5106C101.09 48.5706 100.76 48.8306 100.76 49.0906C100.76 49.4806 101.22 49.6706 102 49.6706C104.67 49.6706 107.07 49.4706 109.41 49.4706C115.52 49.4706 120.79 49.8006 126.57 49.8006C129.43 49.8006 129.69 49.6006 130.08 48.3006C130.54 46.7406 131.05 42.3206 131.05 41.6006C131.05 40.9506 130.99 40.4906 130.53 40.4906L130.54 40.5006Z" fill="#F2F2F2"/>
<path d="M211.27 48.4892C210.69 48.4892 209.71 48.4892 209.12 48.3592C207.76 48.0992 206.13 47.2592 204.05 42.3792C200.41 34.0592 190.79 11.8892 189.68 8.70922C189.03 7.27922 188.71 6.69922 188.18 6.69922C187.47 6.69922 186.82 7.93922 185.64 10.9892L171.86 43.5592C170.36 47.3292 169.45 48.1092 165.36 48.4992C165.34 48.4992 165.32 48.4992 165.3 48.4992C165.32 48.4392 165.34 48.3692 165.36 48.2992C165.82 46.7392 166.33 42.3192 166.33 41.5992C166.33 40.9492 166.27 40.4892 165.81 40.4892C165.35 40.4892 165.29 41.0092 165.16 41.5292C164.97 42.8992 164.25 44.3892 163.47 45.1092C161.97 46.4792 159.76 46.5392 156.77 46.5392C152.22 46.5392 150.79 46.1492 149.88 45.2392C148.71 44.2692 148.71 40.4292 148.71 33.6092V23.9892C148.71 15.4092 148.71 14.1792 148.84 12.4192C148.97 10.4692 149.42 9.55922 150.99 9.29922C151.7 9.10922 152.49 9.10922 153.13 9.03922C153.91 9.03922 154.24 8.83922 154.24 8.45922C154.24 8.07922 153.91 7.87922 153 7.87922C150.79 7.87922 146.11 8.07922 144.88 8.07922C143.19 8.07922 139.68 7.87922 136.95 7.87922C136.04 7.87922 135.58 8.07922 135.58 8.45922C135.58 8.83922 135.97 9.03922 136.62 9.03922C137.34 9.10922 138.12 9.16922 138.57 9.29922C140.32 9.68922 140.78 10.5392 140.91 12.3592C141.04 14.1092 141.04 15.4092 141.04 23.8592V33.6092C141.04 38.3592 141.04 42.5192 140.78 44.7892C140.59 46.9392 140.2 47.9792 138.83 48.2992C138.37 48.4292 137.73 48.4292 137.01 48.4992C136.36 48.5592 136.03 48.8192 136.03 49.0792C136.03 49.4692 136.49 49.6592 137.27 49.6592C139.94 49.6592 142.34 49.4592 144.68 49.4592C147.3 49.4592 149.93 49.5192 152.55 49.5992C155.09 49.6692 157.64 49.7492 160.18 49.7792C162.91 49.8092 165.65 49.7992 168.37 49.6792C169.74 49.6192 171.13 49.4592 172.5 49.4592C174.51 49.4592 176.85 49.6592 178.87 49.6592C179.45 49.6592 179.91 49.5292 179.91 49.0792C179.91 48.8192 179.71 48.5592 178.93 48.5592C177.7 48.5592 175.68 48.4992 175.68 46.8692C175.68 46.2192 176.01 44.8592 176.53 43.4892L179.39 36.4092C179.52 36.0792 179.65 35.9492 179.91 35.9492H192.78C193.04 35.9492 193.24 36.0792 193.3 36.3392L197.72 47.3292C198.11 48.1092 197.65 48.3092 197.07 48.4992C196.75 48.6292 196.49 48.7592 196.49 49.0192C196.49 49.3492 196.88 49.4792 197.47 49.5392C201.56 49.7992 208.39 49.6692 211.12 49.6692C211.96 49.6692 212.22 49.4692 212.22 49.0892C212.22 48.7592 211.96 48.5092 211.25 48.5092L211.27 48.4892ZM191.57 32.6892H181.23C180.97 32.6892 180.9 32.5592 180.97 32.3592L186.1 19.0992C186.36 18.4492 186.56 18.5792 186.75 19.0992L191.82 32.3592C191.88 32.5592 191.88 32.6892 191.56 32.6892H191.57Z" fill="#F2F2F2"/>
<path d="M275.61 7.86984C271.84 7.86984 268.53 8.06984 266.64 8.06984C264.89 8.06984 260.98 7.86984 258.25 7.86984C257.41 7.86984 257.01 7.99984 257.01 8.38984C257.01 8.77984 257.34 8.96984 257.99 8.96984L260.2 9.15984C262.15 9.35984 262.54 10.5298 262.67 12.3498C262.8 14.0998 262.8 15.5298 262.8 23.8498V33.5998C262.8 42.3098 263.06 47.8998 260.85 48.2898C259.54 48.5298 258.18 48.5198 256.85 48.4498C256.6 48.4398 256.34 48.4198 256.09 48.3898C255.44 48.3298 254.79 48.1498 254.18 47.9298C253.49 47.6798 252.84 47.3398 252.23 46.9498C251.31 46.3498 250.49 45.6198 249.72 44.8398C249.62 44.7298 249.51 44.6298 249.41 44.5198C246.03 41.0698 242 35.9398 237.19 29.9598C242.85 25.7398 244.8 22.0298 244.8 17.8698C244.8 14.0998 242.39 11.2998 240.57 10.1298C237.65 8.23984 233.81 7.84984 229.91 7.84984C227.96 7.84984 223.34 8.04984 221.59 8.04984C220.48 8.04984 216.52 7.84984 213.59 7.84984C212.74 7.84984 212.35 8.04984 212.35 8.42984C212.35 8.80984 212.68 9.00984 213.33 9.00984C214.04 9.07984 214.82 9.13984 215.54 9.26984C217.29 9.59984 217.81 10.4398 217.94 12.3898C218.07 14.1498 218.07 15.3798 218.07 23.8298V33.5798C218.07 38.7098 218.07 42.8698 217.74 45.1498C217.61 46.8398 217.22 48.0098 216.12 48.2698C215.6 48.3998 214.88 48.3998 214.04 48.4698C213.39 48.4698 213.13 48.7898 213.13 49.0498C213.13 49.4398 213.52 49.6298 214.23 49.6298C216.51 49.6298 220.47 49.4298 221.45 49.4298C222.29 49.4298 226.84 49.6298 230.29 49.6298C231 49.6298 231.4 49.3698 231.4 48.9798C231.4 48.7198 231.2 48.4598 230.69 48.4598C229.91 48.3898 228.74 48.3898 227.96 48.1998C226.21 48.0098 225.82 46.7698 225.68 45.1498C225.42 42.8698 225.42 39.0398 225.42 34.0298V32.8598C225.42 32.5298 225.62 32.3998 225.88 32.3998L230.5 32.5298C230.89 32.5298 231.21 32.5898 231.41 32.8598C232.25 33.8298 234.66 37.2798 237 40.5298C239.99 44.6198 242.14 47.1598 244.41 48.3998C246.03 49.2398 247.66 49.6398 251.43 49.6398H256.89C256.89 49.6398 256.92 49.6398 256.94 49.6398C257.5 49.6398 258.16 49.6398 258.96 49.6398C261.37 49.6398 264.88 49.4398 266.44 49.4398C269.23 49.4398 274.37 50.0898 278.53 50.0898C289.26 50.0898 294.85 46.1898 297.51 43.5898C300.69 40.4098 303.75 35.1398 303.75 28.2498C303.75 21.3598 301.08 16.9998 298.22 14.2098C292.11 8.09984 283.27 7.83984 275.6 7.83984L275.61 7.86984ZM234.27 28.6698C233.29 29.3798 232.38 29.6398 230.3 29.6398C228.8 29.6398 227.12 29.4498 225.95 28.9898C225.56 28.8598 225.43 28.5998 225.43 28.0798V11.7698C225.43 11.3098 225.56 11.1198 225.89 10.9898C226.41 10.7898 227.45 10.7298 228.81 10.7298C232.06 10.7298 237.46 12.8098 237.46 20.6798C237.46 25.0998 235.9 27.5098 234.28 28.6798L234.27 28.6698ZM290.95 43.2998C287.57 46.2198 283.99 47.2598 278.53 47.2598C274.37 47.2598 271.96 46.1498 271.31 45.1098C270.73 44.1998 270.66 42.5098 270.6 40.9498C270.54 39.9098 270.47 35.8198 270.47 29.9598V23.1298C270.47 11.8198 270.6 11.6898 271.18 11.2298C271.57 10.8998 273.65 10.7098 274.82 10.7098C279.11 10.7098 285.28 11.4898 290.23 16.2998C292.7 18.7698 295.56 23.1298 295.56 29.7598C295.56 35.4198 294.52 40.2898 290.94 43.2798L290.95 43.2998Z" fill="#F2F2F2"/>
<path d="M356.21 21.6495C359.79 18.7895 362.84 15.6095 362.84 10.2695C362.84 6.81953 360.76 0.519531 348.99 0.519531C346.78 0.519531 344.24 0.719531 341.06 0.719531C339.76 0.719531 335.67 0.519531 332.22 0.519531C331.24 0.519531 330.79 0.649531 330.79 1.09953C330.79 1.54953 331.18 1.68953 331.9 1.68953C332.81 1.68953 333.91 1.74953 334.44 1.87953C336.58 2.33953 337.11 3.37953 337.23 5.58953C337.36 7.66953 337.36 9.48953 337.36 19.3695V30.8095C337.36 36.7895 337.36 41.9295 337.03 44.6495C336.77 46.5395 336.51 47.7695 335.28 48.1595C334.7 48.3495 333.78 48.4895 332.81 48.4895C332.03 48.4895 331.77 48.6795 331.77 49.0095C331.77 49.4695 332.23 49.6595 333.07 49.6595C335.99 49.6595 338.66 49.4595 341.26 49.4595C344.71 49.4595 347.7 49.8495 350.69 49.8495C362.65 49.8495 368.05 42.6395 368.05 35.6795C368.05 28.0695 361.55 23.4595 356.22 21.6395L356.21 21.6495ZM345.16 4.41953C345.16 3.70953 345.29 3.44953 345.74 3.31953C346.39 3.18953 346.97 3.18953 347.88 3.18953C353.47 3.18953 356.01 8.90953 356.01 13.2695C356.01 16.4495 355.03 18.7995 353.34 20.1595C352.23 21.1395 350.8 21.3995 348.66 21.3995C347.16 21.3995 346.19 21.3295 345.61 21.1995C345.35 21.1395 345.15 21.0095 345.15 20.4895V4.41953H345.16ZM352.18 46.9295C350.68 46.9295 349.19 46.8595 347.43 46.1495C345.35 45.3095 345.16 44.1995 345.16 39.9095V24.4995C345.16 24.1695 345.29 24.0395 345.55 24.0395C346.53 24.0395 347.17 24.0395 348.34 24.1095C350.88 24.2395 352.37 24.6895 353.74 25.6695C358.68 29.1195 360.05 34.5795 360.05 38.6095C360.05 45.3695 355.11 46.9295 352.18 46.9295Z" fill="#F2F2F2"/>
<path d="M398.98 7.07812C381.88 7.07812 375.38 19.0381 375.38 28.7881C375.38 38.5381 382.14 50.3681 398.46 50.3681C413.09 50.3681 421.99 40.4181 421.99 27.7481C421.99 15.8481 413.28 7.07812 398.98 7.07812ZM400.73 47.3181C389.94 47.3181 383.76 38.2181 383.76 26.9081C383.76 13.2581 390.91 10.0081 397.28 10.0081C406.77 10.0081 413.53 18.0681 413.53 29.8381C413.53 45.6981 404.69 47.3281 400.72 47.3281L400.73 47.3181Z" fill="#F2F2F2"/>
<path d="M468.79 48.4892C468.21 48.4892 467.23 48.4892 466.64 48.3592C465.28 48.0992 463.65 47.2592 461.57 42.3792C457.93 34.0592 448.31 11.8892 447.2 8.70922C446.55 7.27922 446.23 6.69922 445.7 6.69922C444.99 6.69922 444.34 7.93922 443.16 10.9892L429.38 43.5592C427.88 47.3292 426.97 48.1092 422.88 48.4992C422.42 48.4992 422.1 48.7592 422.1 49.0792C422.1 49.5392 422.43 49.6592 423.14 49.6592C426.13 49.6592 429.38 49.4592 430.03 49.4592C432.04 49.4592 434.38 49.6592 436.4 49.6592C436.98 49.6592 437.44 49.5292 437.44 49.0792C437.44 48.8192 437.24 48.5592 436.46 48.5592C435.23 48.5592 433.21 48.4992 433.21 46.8692C433.21 46.2192 433.54 44.8592 434.06 43.4892L436.92 36.4092C437.05 36.0792 437.18 35.9492 437.44 35.9492H450.31C450.57 35.9492 450.77 36.0792 450.83 36.3392L455.25 47.3292C455.64 48.1092 455.18 48.3092 454.6 48.4992C454.28 48.6292 454.02 48.7592 454.02 49.0192C454.02 49.3492 454.41 49.4792 455 49.5392C459.09 49.7992 465.92 49.6692 468.65 49.6692C469.49 49.6692 469.75 49.4692 469.75 49.0892C469.75 48.7592 469.49 48.5092 468.78 48.5092L468.79 48.4892ZM449.09 32.6892H438.75C438.49 32.6892 438.42 32.5592 438.49 32.3592L443.62 19.0992C443.88 18.4492 444.08 18.5792 444.27 19.0992L449.34 32.3592C449.4 32.5592 449.4 32.6892 449.08 32.6892H449.09Z" fill="#F2F2F2"/>
<path d="M506.3 7.47984C505.97 7.47984 505.52 7.60984 504.68 7.73984C503.84 7.86984 502.6 8.06984 500.78 8.06984H477.77C475.82 8.06984 473.48 7.93984 471.92 7.73984C470.49 7.60984 469.97 7.08984 469.51 7.08984C469.18 7.08984 468.99 7.47984 468.86 8.25984C468.73 8.97984 467.69 13.5898 467.63 14.7598C467.63 15.4098 467.76 15.7298 468.15 15.7298C468.48 15.7298 468.67 15.4698 468.8 15.0798C469.06 14.4298 469.19 13.9798 469.58 13.2598C470.36 11.8298 471.33 11.5698 474.65 11.3098C477.25 11.1098 481.54 11.1098 483.69 11.1098V33.5998C483.69 38.7298 483.69 42.8898 483.43 45.2298C483.24 46.8498 482.91 48.0298 481.68 48.2898C481.16 48.4198 480.51 48.4198 479.73 48.4898C479.02 48.4898 478.76 48.7498 478.76 49.0098C478.76 49.3998 479.15 49.6598 479.93 49.6598C482.14 49.6598 486.1 49.4598 487.41 49.4598C488.84 49.4598 492.8 49.6598 496.58 49.6598C497.36 49.6598 497.75 49.3998 497.75 49.0098C497.75 48.7498 497.42 48.4898 496.78 48.4898C495.93 48.4198 494.76 48.3598 493.98 48.2298C492.23 48.0398 491.9 46.7998 491.71 45.3098C491.45 42.8998 491.45 38.5498 491.45 33.6098V11.1198C495.03 11.1898 497.43 11.2498 498.99 11.3798C503.8 11.4498 505.16 12.9398 505.29 14.4398C505.29 14.6998 505.36 14.9598 505.36 15.1498C505.42 15.9298 505.49 16.2598 505.94 16.2598C506.33 16.2598 506.46 15.9298 506.52 15.3498C506.52 13.9198 506.78 9.88984 506.78 8.77984C506.78 7.79984 506.72 7.47984 506.32 7.47984H506.3Z" fill="#F2F2F2"/>
<path d="M527.75 24.3081L525.93 23.0781C521.25 19.8881 520.08 17.7481 520.08 15.3381C520.08 12.1481 522.55 9.80813 526.84 9.80813C530.55 9.80813 532.37 11.2381 533.34 12.7281C534.19 13.9681 534.58 15.5181 534.64 16.2381C534.7 16.9481 534.9 17.3381 535.29 17.3381C535.75 17.3381 535.94 16.8781 535.94 15.6481C535.94 11.2281 536.2 9.66813 536.2 8.75813C536.2 8.36813 536.07 8.10813 535.55 8.04813C534.9 7.97813 534.12 7.78812 533.21 7.65812C531.59 7.39812 530.03 7.07812 527.42 7.07812C519.3 7.07812 514.03 11.6281 514.03 17.7381C514.03 22.2881 516.11 25.9981 522.55 30.8681L525.28 32.9481C530.09 36.4581 530.87 38.9281 530.87 41.5281C530.87 44.3881 528.53 47.5781 523.33 47.5781C519.62 47.5781 516.05 45.8281 514.88 41.5981C514.55 40.6881 514.55 39.7181 514.49 38.9981C514.43 38.5381 514.36 38.0881 513.84 38.0881C513.38 38.0881 513.19 38.6081 513.13 39.5181C513.06 40.4881 512.87 43.7481 512.87 47.0581C512.87 48.1681 513.07 48.5581 513.98 48.9381C516.45 49.9781 519.05 50.3681 522.56 50.3681C525.55 50.3681 528.87 49.9081 531.79 48.1581C535.95 45.5581 537.38 41.7181 537.38 38.3381C537.38 33.0681 535.04 29.2381 527.76 24.2981L527.75 24.3081Z" fill="#F2F2F2"/>
<path d="M544.02 61.3202L548.41 54.4102H543.31L539.87 59.8202H537.96H10.45H8.54L5.1 54.4102H0L4.39 61.3202L0 68.2302H5.1L8.54 62.8202H10.45H537.96H539.87L543.31 68.2302H548.41L544.02 61.3202Z" fill="#F2F2F2"/>
<path d="M51.31 72.4117C51.22 72.4117 51.05 72.4517 50.72 72.5217C50.39 72.5617 49.92 72.6317 49.22 72.6317H40.61C39.89 72.6317 39.07 72.5917 38.44 72.5217C37.9 72.4817 37.68 72.2617 37.51 72.2617C37.38 72.2617 37.31 72.3917 37.25 72.6717C37.21 72.8417 36.79 74.8217 36.79 75.1717C36.79 75.4117 36.83 75.5217 36.99 75.5217C37.12 75.5217 37.19 75.4317 37.23 75.2617C37.27 75.0917 37.38 74.8317 37.6 74.5017C37.93 74.0217 38.45 73.9117 39.71 73.8717C40.78 73.8517 42.12 73.8017 42.95 73.7817V82.7017C42.95 84.7017 42.95 86.4217 42.84 87.3317C42.77 87.9617 42.64 88.4417 42.21 88.5317C42.01 88.5717 41.75 88.6217 41.43 88.6217C41.17 88.6217 41.08 88.6917 41.08 88.7917C41.08 88.9417 41.23 89.0117 41.52 89.0117C42.39 89.0117 43.76 88.9417 44.26 88.9417C44.87 88.9417 46.24 89.0117 47.67 89.0117C47.91 89.0117 48.08 88.9417 48.08 88.7917C48.08 88.6817 47.97 88.6217 47.73 88.6217C47.4 88.6217 46.93 88.5817 46.62 88.5317C45.97 88.4417 45.84 87.9617 45.77 87.3617C45.66 86.4217 45.66 84.7117 45.66 82.7117V73.7917C46.94 73.8117 47.83 73.8317 48.4 73.8617C50.34 73.9017 50.92 74.5117 50.97 75.0817C50.97 75.1417 50.99 75.2517 50.99 75.3217C51.01 75.6517 51.05 75.7617 51.23 75.7617C51.36 75.7617 51.4 75.6317 51.43 75.4117C51.43 74.8417 51.5 73.3417 51.5 72.8917C51.5 72.5617 51.48 72.4317 51.33 72.4317L51.31 72.4117Z" fill="#F2F2F2"/>
<path d="M81.2101 88.6106C81.0101 88.6106 80.6901 88.6106 80.4901 88.5706C80.0301 88.4806 79.4901 88.2006 78.7901 86.5706C77.5701 83.7906 74.3501 76.3706 73.9901 75.3106C73.7701 74.8306 73.6601 74.6406 73.4901 74.6406C73.2501 74.6406 73.0301 75.0506 72.6401 76.0806L68.0301 86.9706C67.7101 87.7806 67.4701 88.1706 66.9801 88.3906C66.6001 88.2306 66.1101 87.9406 65.5101 87.3006C64.3801 86.1506 63.0301 84.4306 61.4201 82.4306C63.3101 81.0206 63.9601 79.7806 63.9601 78.3906C63.9601 77.1306 63.1601 76.1906 62.5501 75.8006C61.5701 75.1706 60.2901 75.0406 58.9801 75.0406C58.3301 75.0406 56.7801 75.1106 56.2001 75.1106C55.8301 75.1106 54.5001 75.0406 53.5301 75.0406C53.2501 75.0406 53.1201 75.1106 53.1201 75.2406C53.1201 75.3706 53.2301 75.4406 53.4501 75.4406C53.6901 75.4606 53.9501 75.4806 54.1901 75.5306C54.7801 75.6406 54.9501 75.9206 54.9901 76.5706C55.0301 77.1606 55.0301 77.5706 55.0301 80.4006V83.6606C55.0301 85.3806 55.0301 86.7706 54.9201 87.5306C54.8801 88.1006 54.7501 88.4906 54.3801 88.5706C54.2101 88.6106 53.9701 88.6106 53.6801 88.6406C53.4601 88.6406 53.3801 88.7506 53.3801 88.8406C53.3801 88.9706 53.5101 89.0406 53.7501 89.0406C54.5101 89.0406 55.8401 88.9706 56.1601 88.9706C56.4401 88.9706 57.9601 89.0406 59.1201 89.0406C59.3601 89.0406 59.4901 88.9506 59.4901 88.8206C59.4901 88.7306 59.4201 88.6506 59.2501 88.6506C58.9901 88.6306 58.6001 88.6306 58.3401 88.5606C57.7501 88.4906 57.6201 88.0806 57.5801 87.5406C57.4901 86.7806 57.4901 85.5006 57.4901 83.8206V83.4306C57.4901 83.3206 57.5601 83.2806 57.6401 83.2806L59.1801 83.3206C59.3101 83.3206 59.4201 83.3406 59.4801 83.4306C59.7601 83.7606 60.5701 84.9106 61.3501 86.0006C62.3501 87.3706 63.0701 88.2206 63.8301 88.6306C64.3801 88.9306 65.0001 89.0006 65.6101 89.0306C66.4401 89.0706 67.2801 89.0306 68.1101 88.9906C68.8601 88.9606 69.6201 89.0406 70.3801 89.0406C70.5801 89.0406 70.7301 89.0006 70.7301 88.8406C70.7301 88.7506 70.6601 88.6706 70.4001 88.6706C69.9901 88.6706 69.3101 88.6506 69.3101 88.1006C69.3101 87.8806 69.4201 87.4306 69.5901 86.9706L70.5501 84.6006C70.5901 84.4906 70.6401 84.4506 70.7201 84.4506H75.0201C75.1101 84.4506 75.1701 84.4906 75.1901 84.5806L76.6701 88.2506C76.8001 88.5106 76.6501 88.5806 76.4501 88.6406C76.3401 88.6806 76.2501 88.7306 76.2501 88.8106C76.2501 88.9206 76.3801 88.9606 76.5801 88.9806C77.9501 89.0706 80.2301 89.0206 81.1501 89.0206C81.4301 89.0206 81.5201 88.9506 81.5201 88.8206C81.5201 88.7106 81.4301 88.6206 81.1901 88.6206L81.2101 88.6106ZM60.4401 81.9806C60.1101 82.2206 59.8101 82.3106 59.1101 82.3106C58.6101 82.3106 58.0401 82.2406 57.6501 82.0906C57.5201 82.0506 57.4801 81.9606 57.4801 81.7906V76.3306C57.4801 76.1806 57.5201 76.1106 57.6301 76.0706C57.8001 76.0006 58.1501 75.9806 58.6101 75.9806C59.7001 75.9806 61.5001 76.6806 61.5001 79.3106C61.5001 80.7906 60.9801 81.5906 60.4301 81.9806H60.4401ZM74.6201 83.3306H71.1601C71.0701 83.3306 71.0501 83.2906 71.0701 83.2206L72.7901 78.7806C72.8801 78.5606 72.9401 78.6106 73.0101 78.7806L74.7101 83.2206C74.7301 83.2906 74.7301 83.3306 74.6201 83.3306Z" fill="#F2F2F2"/>
<path d="M87.98 75.0195C86.72 75.0195 85.61 75.0895 84.98 75.0895C84.39 75.0895 83.09 75.0195 82.18 75.0195C81.9 75.0195 81.77 75.0595 81.77 75.1895C81.77 75.3195 81.88 75.3895 82.1 75.3895L82.84 75.4495C83.49 75.5195 83.62 75.9095 83.67 76.5195C83.71 77.1095 83.71 77.5895 83.71 80.3695V83.6295C83.71 86.5395 83.8 88.4095 83.06 88.5395C82.82 88.5795 82.6 88.6095 82.39 88.6095C82.18 88.6095 82.06 88.7195 82.06 88.8095C82.06 88.9395 82.17 89.0095 82.43 89.0095C83.23 89.0095 84.41 88.9395 84.93 88.9395C85.87 88.9395 87.58 89.1595 88.97 89.1595C92.56 89.1595 94.43 87.8595 95.32 86.9895C96.39 85.9195 97.41 84.1595 97.41 81.8595C97.41 79.5595 96.52 78.0995 95.56 77.1595C93.52 75.1195 90.56 75.0295 87.99 75.0295L87.98 75.0195ZM93.11 86.8695C91.98 87.8495 90.78 88.1995 88.96 88.1995C87.57 88.1995 86.76 87.8295 86.55 87.4795C86.35 87.1795 86.33 86.6095 86.31 86.0895C86.29 85.7395 86.27 84.3695 86.27 82.4195V80.1395C86.27 76.3595 86.31 76.3095 86.51 76.1595C86.64 76.0495 87.34 75.9895 87.73 75.9895C89.16 75.9895 91.23 76.2495 92.88 77.8595C93.71 78.6895 94.66 80.1395 94.66 82.3595C94.66 84.2495 94.31 85.8795 93.12 86.8795L93.11 86.8695Z" fill="#F2F2F2"/>
<path d="M105.95 88.6117C105.67 88.5917 105.41 88.5917 105.12 88.5217C104.55 88.4517 104.4 88.0617 104.36 87.5617C104.27 86.7817 104.25 85.3617 104.25 83.6217V80.3617C104.25 77.5317 104.25 77.1017 104.31 76.5117C104.35 75.8817 104.51 75.5517 105.03 75.4717C105.25 75.4317 105.33 75.4317 105.53 75.4017C105.73 75.4017 105.83 75.3317 105.83 75.1817C105.83 75.0717 105.72 75.0117 105.46 75.0117C104.72 75.0117 103.44 75.0817 103 75.0817C102.52 75.0817 101.22 75.0117 100.46 75.0117C100.16 75.0117 100.03 75.0817 100.03 75.1817C100.03 75.3317 100.14 75.4017 100.33 75.4017C100.57 75.4217 100.81 75.4417 101 75.4917C101.41 75.5817 101.61 75.8817 101.65 76.4917C101.69 77.1017 101.69 77.5317 101.69 80.3617V83.6217C101.69 85.4217 101.69 86.8217 101.58 87.6017C101.54 88.1217 101.36 88.4517 100.99 88.5317C100.82 88.5717 100.66 88.5717 100.4 88.6017C100.16 88.6017 100.07 88.7117 100.07 88.8017C100.07 88.9317 100.2 89.0017 100.46 89.0017C101.22 89.0017 102.53 88.9317 102.89 88.9317C103.35 88.9317 104.59 89.0017 105.87 89.0017C106.09 89.0017 106.24 88.9317 106.24 88.8017C106.24 88.7117 106.15 88.6017 105.91 88.6017L105.95 88.6117Z" fill="#F2F2F2"/>
<path d="M120.56 74.8917C120.45 74.8917 120.3 74.9317 120.02 74.9817C119.74 75.0217 119.32 75.0917 118.72 75.0917H111.02C110.37 75.0917 109.59 75.0517 109.06 74.9817C108.58 74.9417 108.41 74.7617 108.26 74.7617C108.15 74.7617 108.09 74.8917 108.04 75.1517C108 75.3917 107.65 76.9317 107.63 77.3217C107.63 77.5417 107.67 77.6517 107.8 77.6517C107.91 77.6517 107.97 77.5617 108.02 77.4317C108.11 77.2117 108.15 77.0617 108.28 76.8217C108.54 76.3417 108.87 76.2517 109.98 76.1717C110.85 76.1017 112.28 76.1017 113 76.1017V83.6217C113 85.3417 113 86.7317 112.91 87.5117C112.84 88.0517 112.74 88.4417 112.32 88.5317C112.15 88.5717 111.93 88.5717 111.67 88.6017C111.43 88.6017 111.34 88.6917 111.34 88.7717C111.34 88.9017 111.47 88.9917 111.73 88.9917C112.47 88.9917 113.8 88.9217 114.23 88.9217C114.71 88.9217 116.03 88.9917 117.3 88.9917C117.56 88.9917 117.69 88.9017 117.69 88.7717C117.69 88.6817 117.58 88.6017 117.36 88.6017C117.08 88.5817 116.69 88.5617 116.42 88.5117C115.83 88.4417 115.72 88.0317 115.66 87.5317C115.57 86.7317 115.57 85.2717 115.57 83.6217V76.1017C116.77 76.1217 117.57 76.1417 118.09 76.1917C119.7 76.2117 120.16 76.7117 120.2 77.2117C120.2 77.3017 120.22 77.3817 120.22 77.4517C120.24 77.7117 120.26 77.8217 120.42 77.8217C120.55 77.8217 120.59 77.7117 120.62 77.5217C120.62 77.0417 120.71 75.6917 120.71 75.3217C120.71 74.9917 120.69 74.8817 120.56 74.8817V74.8917Z" fill="#F2F2F2"/>
<path d="M128.5 88.6117C128.22 88.5917 127.96 88.5917 127.67 88.5217C127.1 88.4517 126.95 88.0617 126.91 87.5617C126.82 86.7817 126.8 85.3617 126.8 83.6217V80.3617C126.8 77.5317 126.8 77.1017 126.86 76.5117C126.9 75.8817 127.06 75.5517 127.58 75.4717C127.8 75.4317 127.88 75.4317 128.08 75.4017C128.28 75.4017 128.38 75.3317 128.38 75.1817C128.38 75.0717 128.27 75.0117 128.01 75.0117C127.27 75.0117 125.99 75.0817 125.55 75.0817C125.07 75.0817 123.77 75.0117 123.01 75.0117C122.71 75.0117 122.58 75.0817 122.58 75.1817C122.58 75.3317 122.69 75.4017 122.88 75.4017C123.12 75.4217 123.36 75.4417 123.55 75.4917C123.96 75.5817 124.16 75.8817 124.2 76.4917C124.24 77.1017 124.24 77.5317 124.24 80.3617V83.6217C124.24 85.4217 124.24 86.8217 124.13 87.6017C124.09 88.1217 123.91 88.4517 123.54 88.5317C123.37 88.5717 123.21 88.5717 122.95 88.6017C122.71 88.6017 122.62 88.7117 122.62 88.8017C122.62 88.9317 122.75 89.0017 123.01 89.0017C123.77 89.0017 125.08 88.9317 125.44 88.9317C125.9 88.9317 127.14 89.0017 128.42 89.0017C128.64 89.0017 128.79 88.9317 128.79 88.8017C128.79 88.7117 128.7 88.6017 128.46 88.6017L128.5 88.6117Z" fill="#F2F2F2"/>
<path d="M139.01 74.7617C133.29 74.7617 131.12 78.7617 131.12 82.0217C131.12 85.2817 133.38 89.2417 138.84 89.2417C143.73 89.2417 146.71 85.9117 146.71 81.6717C146.71 77.6917 143.8 74.7617 139.01 74.7617ZM139.6 88.2217C135.99 88.2217 133.92 85.1817 133.92 81.3917C133.92 76.8217 136.31 75.7417 138.44 75.7417C141.61 75.7417 143.88 78.4417 143.88 82.3717C143.88 87.6817 140.92 88.2217 139.6 88.2217Z" fill="#F2F2F2"/>
<path d="M164.52 75.0209C163.61 75.0209 162.82 75.0909 162.59 75.0909C162.11 75.0909 161.13 75.0209 160.18 75.0209C159.92 75.0209 159.7 75.0409 159.7 75.1909C159.7 75.3009 159.79 75.4109 160.03 75.4109C160.29 75.4309 160.73 75.4309 161.01 75.5209C161.53 75.7209 161.68 76.0909 161.71 77.1909L161.88 85.2309C161.53 84.9309 159.1 82.4509 157.68 81.1009C154.57 78.1909 152.03 75.5609 151.68 75.2509C151.35 74.9209 151.18 74.7109 150.98 74.7109C150.76 74.7109 150.7 74.9709 150.7 75.3809C150.7 77.8109 150.59 82.3609 150.55 86.2709C150.53 87.8809 150.44 88.3609 149.9 88.5109C149.64 88.5809 149.31 88.5809 149.07 88.6009C148.87 88.6009 148.77 88.6909 148.77 88.8009C148.77 88.9709 148.94 89.0009 149.18 89.0009C150.11 89.0009 151.12 88.9309 151.35 88.9309C151.85 88.9309 152.61 89.0009 153.74 89.0009C154 89.0009 154.17 88.9309 154.17 88.7809C154.17 88.6709 154.04 88.6109 153.84 88.6109C153.51 88.5909 153.14 88.5909 152.82 88.4809C152.43 88.3509 152.21 87.8909 152.17 86.4809L151.97 78.9409C152.49 79.4809 154.62 81.7409 156.54 83.5309C158.34 85.2709 160.67 87.5109 161.89 88.6209C162.3 88.9909 162.59 89.2309 162.83 89.2309C163 89.2309 163.11 89.0609 163.11 88.5609C163.18 84.6909 163.22 79.8409 163.31 77.0609C163.33 76.0209 163.51 75.6509 164.07 75.4909C164.27 75.4509 164.42 75.4509 164.61 75.4209C164.85 75.4209 164.94 75.3309 164.94 75.2209C164.94 75.0709 164.77 75.0209 164.53 75.0209H164.52Z" fill="#F2F2F2"/>
<path d="M180.66 88.6106C180.46 88.6106 180.14 88.6106 179.94 88.5706C179.48 88.4806 178.94 88.2006 178.24 86.5706C177.02 83.7906 173.8 76.3706 173.43 75.3106C173.21 74.8306 173.1 74.6406 172.93 74.6406C172.69 74.6406 172.47 75.0506 172.08 76.0806L167.47 86.9706C166.97 88.2306 166.67 88.4906 165.3 88.6206C165.15 88.6206 165.04 88.7106 165.04 88.8206C165.04 88.9706 165.15 89.0206 165.39 89.0206C166.39 89.0206 167.48 88.9506 167.69 88.9506C168.36 88.9506 169.15 89.0206 169.82 89.0206C170.02 89.0206 170.17 88.9806 170.17 88.8206C170.17 88.7306 170.11 88.6506 169.84 88.6506C169.43 88.6506 168.75 88.6306 168.75 88.0806C168.75 87.8606 168.86 87.4106 169.03 86.9506L169.99 84.5806C170.03 84.4706 170.08 84.4306 170.16 84.4306H174.47C174.56 84.4306 174.62 84.4706 174.64 84.5606L176.12 88.2306C176.25 88.4906 176.1 88.5606 175.9 88.6206C175.79 88.6606 175.7 88.7106 175.7 88.7906C175.7 88.9006 175.83 88.9406 176.03 88.9606C177.4 89.0506 179.68 89.0006 180.6 89.0006C180.88 89.0006 180.97 88.9306 180.97 88.8006C180.97 88.6906 180.88 88.6006 180.64 88.6006L180.66 88.6106ZM174.07 83.3306H170.61C170.52 83.3306 170.5 83.2906 170.52 83.2206L172.24 78.7806C172.33 78.5606 172.39 78.6106 172.46 78.7806L174.16 83.2206C174.18 83.2906 174.18 83.3306 174.07 83.3306Z" fill="#F2F2F2"/>
<path d="M191.43 85.9413C191.28 85.9413 191.26 86.1113 191.21 86.2913C191.14 86.7513 190.91 87.2512 190.64 87.4912C190.14 87.9512 189.4 87.9713 188.4 87.9713C186.88 87.9713 186.4 87.8413 186.1 87.5413C185.71 87.2113 185.71 85.9313 185.71 83.6513V80.4313C185.71 77.5613 185.71 77.1512 185.75 76.5612C185.79 75.9112 185.95 75.6012 186.47 75.5212C186.71 75.4512 186.97 75.4513 187.19 75.4313C187.45 75.4313 187.56 75.3613 187.56 75.2313C187.56 75.1013 187.45 75.0312 187.15 75.0312C186.41 75.0312 184.85 75.1012 184.43 75.1012C183.86 75.1012 182.69 75.0312 181.78 75.0312C181.48 75.0312 181.32 75.1013 181.32 75.2313C181.32 75.3613 181.45 75.4313 181.67 75.4313C181.91 75.4513 182.17 75.4712 182.32 75.5212C182.91 75.6512 183.06 75.9313 183.1 76.5413C183.14 77.1313 183.14 77.5613 183.14 80.3913V83.6513C183.14 85.2413 183.14 86.6313 183.05 87.3913C182.99 88.1113 182.85 88.4612 182.4 88.5612C182.25 88.6012 182.03 88.6012 181.79 88.6312C181.57 88.6512 181.46 88.7413 181.46 88.8313C181.46 88.9613 181.61 89.0312 181.87 89.0312C182.76 89.0312 183.57 88.9613 184.35 88.9613C186.39 88.9613 188.16 89.0713 190.09 89.0713C191.05 89.0713 191.13 89.0113 191.26 88.5713C191.41 88.0513 191.59 86.5713 191.59 86.3313C191.59 86.1113 191.57 85.9613 191.42 85.9613L191.43 85.9413Z" fill="#F2F2F2"/>
<path d="M218.03 88.6117C217.38 88.5717 216.4 88.2617 215.7 87.8517C215.11 87.5017 214.13 86.9117 212.68 85.7217C213.92 84.2617 214.81 82.2417 214.81 80.5717C214.81 80.3117 214.59 80.1817 214.07 80.1317C212.85 80.0217 211.98 79.9817 211.46 79.9817C211.29 79.9817 211.07 80.0217 211.07 80.2017C211.07 80.3317 211.29 80.3717 211.42 80.3717C211.75 80.3917 212.16 80.4417 212.44 80.7017C212.77 80.9817 212.85 81.3717 212.85 81.7017C212.85 83.0317 212.24 84.4417 211.81 85.0517C211.4 84.6817 208.72 82.2717 207.98 81.4217C206.24 79.4817 204.37 77.7517 204.37 75.7017C204.37 73.8517 205.78 73.2217 206.7 73.2217C207.92 73.2217 208.68 73.6817 209.11 74.2017C209.59 74.7717 209.74 75.4617 209.74 76.0317C209.74 76.3617 209.76 76.4417 209.89 76.4417C210.02 76.4417 210.11 76.4017 210.15 76.0717C210.22 75.7417 210.39 74.0017 210.39 73.2917C210.39 73.0317 210.39 72.8517 210.02 72.7217C209.43 72.4817 208.45 72.2617 207.39 72.2617C203.61 72.2617 202.08 74.5417 202.11 76.2617C202.13 77.2417 202.24 78.1517 203.15 79.3717C201.85 80.0017 199.67 81.8117 199.67 84.3517C199.67 86.3717 201.06 89.3117 205.71 89.3117C208.69 89.3117 210.06 88.1117 210.78 87.4617C212.65 88.8917 213.52 89.0017 216 89.0017H217.7C218.18 89.0017 218.33 88.9317 218.33 88.8017C218.33 88.6517 218.22 88.6317 218.03 88.6017V88.6117ZM206.55 87.9117C204.22 87.9117 202.29 86.1917 202.29 83.4717C202.29 81.7317 202.99 80.7317 203.73 80.1917C205.82 82.6317 207.19 84.1517 209.95 86.7617C209.49 87.2017 208.23 87.9117 206.56 87.9117H206.55Z" fill="#F2F2F2"/>
<path d="M245.65 88.6081C245.37 88.6081 244.93 88.5881 244.3 88.3881C243.65 88.1881 243.43 87.5581 243.23 86.1881L241.25 72.7481C241.19 72.2881 241.05 72.0781 240.86 72.0781C240.67 72.0781 240.56 72.2481 240.38 72.5981L234.47 85.0181L228.53 72.7581C228.25 72.1881 228.12 72.0881 227.94 72.0881C227.76 72.0881 227.64 72.2881 227.57 72.6581L225.42 86.8381C225.31 87.5781 225.14 88.4281 224.53 88.5581C224.2 88.6281 224.05 88.6281 223.88 88.6281C223.66 88.6281 223.53 88.6681 223.53 88.7781C223.53 88.9781 223.7 89.0181 223.92 89.0181C224.62 89.0181 225.66 88.9481 226.07 88.9481C226.46 88.9481 227.44 89.0181 228.35 89.0181C228.68 89.0181 228.87 88.9781 228.87 88.7781C228.87 88.6681 228.72 88.6281 228.54 88.6281C228.32 88.6281 228.02 88.6081 227.63 88.5181C227.26 88.4281 226.98 88.2381 226.98 87.8181C226.98 87.4681 227 87.1881 227.05 86.7981L228.2 77.9881C228.96 79.6181 230.33 82.5081 230.53 82.9681C230.79 83.5781 232.51 86.9081 233.03 87.9081C233.38 88.5581 233.6 88.9981 233.79 88.9981C233.98 88.9981 234.09 88.7981 234.59 87.7781L239.4 77.7781L240.73 87.4781C240.82 88.0881 240.75 88.3681 240.62 88.4081C240.47 88.4781 240.38 88.5381 240.38 88.6481C240.38 88.7781 240.51 88.8481 241.01 88.8881C241.88 88.9581 244.88 89.0181 245.42 89.0181C245.72 89.0181 245.99 88.9481 245.99 88.7781C245.99 88.6481 245.84 88.6281 245.64 88.6281L245.65 88.6081Z" fill="#F2F2F2"/>
<path d="M254.94 74.7617C249.22 74.7617 247.05 78.7617 247.05 82.0217C247.05 85.2817 249.31 89.2417 254.77 89.2417C259.66 89.2417 262.64 85.9117 262.64 81.6717C262.64 77.6917 259.73 74.7617 254.94 74.7617ZM255.53 88.2217C251.92 88.2217 249.85 85.1817 249.85 81.3917C249.85 76.8217 252.24 75.7417 254.37 75.7417C257.54 75.7417 259.81 78.4417 259.81 82.3717C259.81 87.6817 256.85 88.2217 255.53 88.2217Z" fill="#F2F2F2"/>
<path d="M271.23 75.0195C269.97 75.0195 268.86 75.0895 268.23 75.0895C267.64 75.0895 266.34 75.0195 265.43 75.0195C265.15 75.0195 265.02 75.0595 265.02 75.1895C265.02 75.3195 265.13 75.3895 265.35 75.3895L266.09 75.4495C266.74 75.5195 266.87 75.9095 266.92 76.5195C266.96 77.1095 266.96 77.5895 266.96 80.3695V83.6295C266.96 86.5395 267.05 88.4095 266.31 88.5395C266.07 88.5795 265.85 88.6095 265.64 88.6095C265.43 88.6095 265.31 88.7195 265.31 88.8095C265.31 88.9395 265.42 89.0095 265.68 89.0095C266.48 89.0095 267.66 88.9395 268.18 88.9395C269.12 88.9395 270.83 89.1595 272.22 89.1595C275.81 89.1595 277.68 87.8595 278.57 86.9895C279.64 85.9195 280.66 84.1595 280.66 81.8595C280.66 79.5595 279.77 78.0995 278.81 77.1595C276.77 75.1195 273.81 75.0295 271.24 75.0295L271.23 75.0195ZM276.36 86.8695C275.23 87.8495 274.03 88.1995 272.21 88.1995C270.82 88.1995 270.01 87.8295 269.8 87.4795C269.6 87.1795 269.58 86.6095 269.56 86.0895C269.54 85.7395 269.52 84.3695 269.52 82.4195V80.1395C269.52 76.3595 269.56 76.3095 269.76 76.1595C269.89 76.0495 270.59 75.9895 270.98 75.9895C272.41 75.9895 274.48 76.2495 276.13 77.8595C276.96 78.6895 277.91 80.1395 277.91 82.3595C277.91 84.2495 277.56 85.8795 276.37 86.8795L276.36 86.8695Z" fill="#F2F2F2"/>
<path d="M292.77 86.0194C292.62 86.0194 292.57 86.1294 292.53 86.3194C292.38 87.0994 292.16 87.4694 291.66 87.7094C291.18 87.9294 290.38 87.9294 289.88 87.9294C287.88 87.9294 287.6 87.6494 287.55 86.3594C287.53 85.7894 287.55 84.2694 287.55 83.6394V82.2294C287.55 82.1194 287.57 82.0294 287.68 82.0294C288.16 82.0294 289.98 82.0494 290.38 82.0994C291.14 82.1594 291.36 82.4494 291.47 82.8594C291.51 83.0794 291.51 83.1894 291.54 83.3594C291.54 83.4694 291.61 83.6594 291.74 83.6594C291.91 83.6594 291.94 83.4594 291.94 83.3094C291.94 83.1594 292 82.3794 292 82.0094C292.07 81.1194 292.15 80.7094 292.15 80.5694C292.15 80.4594 292.11 80.4194 292.02 80.4194C291.93 80.4194 291.85 80.4894 291.72 80.6594C291.55 80.8594 291.26 80.9194 290.72 80.9594C290.24 80.9794 288.15 80.9794 287.7 80.9794C287.59 80.9794 287.57 80.9094 287.57 80.7794V76.2794C287.57 76.1494 287.61 76.0794 287.7 76.0794C288.13 76.0794 290.09 76.1194 290.46 76.1694C291.4 76.2794 291.57 76.4694 291.7 76.8194C291.81 77.0594 291.81 77.3394 291.81 77.4294C291.83 77.6694 291.88 77.7794 292.01 77.7794C292.18 77.7794 292.23 77.5794 292.23 77.4794C292.27 76.9094 292.3 76.5494 292.32 76.1994C292.36 75.4194 292.49 75.1594 292.49 75.0294C292.49 74.9394 292.47 74.8594 292.36 74.8594C292.27 74.8594 292.16 74.9294 292.06 74.9494C291.89 74.9694 291.56 75.0194 291.19 75.0594C290.84 75.0794 286.86 75.0794 286.28 75.0794C285.32 75.0794 284.45 75.0094 283.54 75.0094C283.24 75.0094 283.1 75.0494 283.1 75.1794C283.1 75.3094 283.21 75.3794 283.43 75.3794C283.69 75.3994 284 75.3994 284.17 75.4394C284.76 75.5694 284.91 75.8094 284.95 76.4194C284.99 77.0294 284.99 77.5294 284.99 80.3594V83.6194C284.99 85.2094 284.99 86.6194 284.9 87.3794C284.84 88.0294 284.73 88.4494 284.34 88.5294C284.17 88.5694 283.93 88.5694 283.67 88.5994C283.41 88.5994 283.34 88.7094 283.34 88.7994C283.34 88.9294 283.47 88.9994 283.73 88.9994C284.64 88.9994 285.43 88.9294 286.21 88.9294C288.15 88.9294 289.78 89.0394 291.67 89.0394C292.39 89.0394 292.56 89.0394 292.69 88.5594C292.8 88.1894 292.95 86.8594 292.95 86.3894C292.95 86.1894 292.95 86.0194 292.8 86.0194H292.77Z" fill="#F2F2F2"/>
<path d="M344.36 79.6303C345.56 78.6703 346.58 77.6103 346.58 75.8303C346.58 74.6803 345.88 72.5703 341.95 72.5703C341.21 72.5703 340.36 72.6403 339.3 72.6403C338.86 72.6403 337.5 72.5703 336.34 72.5703C336.01 72.5703 335.86 72.6103 335.86 72.7703C335.86 72.9303 335.99 72.9703 336.23 72.9703C336.53 72.9703 336.9 72.9903 337.08 73.0403C337.8 73.1903 337.97 73.5403 338.01 74.2803C338.05 74.9803 338.05 75.5803 338.05 78.8903V82.7203C338.05 84.7203 338.05 86.4403 337.94 87.3503C337.85 87.9803 337.77 88.3903 337.35 88.5203C337.15 88.5803 336.85 88.6303 336.52 88.6303C336.26 88.6303 336.17 88.7003 336.17 88.8003C336.17 88.9503 336.32 89.0203 336.6 89.0203C337.58 89.0203 338.47 88.9503 339.34 88.9503C340.49 88.9503 341.49 89.0803 342.49 89.0803C346.49 89.0803 348.3 86.6703 348.3 84.3403C348.3 81.8003 346.13 80.2503 344.34 79.6403L344.36 79.6303ZM340.66 73.8703C340.66 73.6303 340.7 73.5403 340.86 73.5003C341.08 73.4603 341.27 73.4603 341.58 73.4603C343.45 73.4603 344.3 75.3703 344.3 76.8303C344.3 77.9003 343.97 78.6803 343.41 79.1303C343.04 79.4603 342.56 79.5403 341.84 79.5403C341.34 79.5403 341.01 79.5203 340.82 79.4703C340.73 79.4503 340.67 79.4103 340.67 79.2303V73.8603L340.66 73.8703ZM343.01 88.0903C342.51 88.0903 342.01 88.0703 341.42 87.8303C340.72 87.5503 340.66 87.1803 340.66 85.7403V80.5903C340.66 80.4803 340.7 80.4403 340.79 80.4403C341.12 80.4403 341.33 80.4403 341.72 80.4603C342.57 80.5003 343.07 80.6603 343.53 80.9803C345.18 82.1303 345.64 83.9603 345.64 85.3103C345.64 87.5703 343.99 88.0903 343.01 88.0903Z" fill="#F2F2F2"/>
<path d="M358.67 74.7617C352.95 74.7617 350.78 78.7617 350.78 82.0217C350.78 85.2817 353.04 89.2417 358.5 89.2417C363.39 89.2417 366.37 85.9117 366.37 81.6717C366.37 77.6917 363.46 74.7617 358.67 74.7617ZM359.26 88.2217C355.65 88.2217 353.58 85.1817 353.58 81.3917C353.58 76.8217 355.97 75.7417 358.1 75.7417C361.27 75.7417 363.54 78.4417 363.54 82.3717C363.54 87.6817 360.58 88.2217 359.26 88.2217Z" fill="#F2F2F2"/>
<path d="M382.14 88.6106C381.94 88.6106 381.62 88.6106 381.42 88.5706C380.96 88.4806 380.42 88.2006 379.72 86.5706C378.5 83.7906 375.28 76.3706 374.91 75.3106C374.69 74.8306 374.58 74.6406 374.41 74.6406C374.17 74.6406 373.95 75.0506 373.56 76.0806L368.95 86.9706C368.45 88.2306 368.15 88.4906 366.78 88.6206C366.63 88.6206 366.52 88.7106 366.52 88.8206C366.52 88.9706 366.63 89.0206 366.87 89.0206C367.87 89.0206 368.96 88.9506 369.17 88.9506C369.84 88.9506 370.63 89.0206 371.3 89.0206C371.5 89.0206 371.65 88.9806 371.65 88.8206C371.65 88.7306 371.59 88.6506 371.32 88.6506C370.91 88.6506 370.23 88.6306 370.23 88.0806C370.23 87.8606 370.34 87.4106 370.51 86.9506L371.47 84.5806C371.51 84.4706 371.56 84.4306 371.64 84.4306H375.95C376.04 84.4306 376.1 84.4706 376.12 84.5606L377.6 88.2306C377.73 88.4906 377.58 88.5606 377.38 88.6206C377.27 88.6606 377.18 88.7106 377.18 88.7906C377.18 88.9006 377.31 88.9406 377.51 88.9606C378.88 89.0506 381.16 89.0006 382.08 89.0006C382.36 89.0006 382.45 88.9306 382.45 88.8006C382.45 88.6906 382.36 88.6006 382.12 88.6006L382.14 88.6106ZM375.55 83.3306H372.09C372 83.3306 371.98 83.2906 372 83.2206L373.72 78.7806C373.81 78.5606 373.87 78.6106 373.94 78.7806L375.64 83.2206C375.66 83.2906 375.66 83.3306 375.55 83.3306Z" fill="#F2F2F2"/>
<path d="M394.62 74.8917C394.51 74.8917 394.36 74.9317 394.08 74.9817C393.8 75.0217 393.38 75.0917 392.78 75.0917H385.08C384.43 75.0917 383.65 75.0517 383.12 74.9817C382.64 74.9417 382.47 74.7617 382.32 74.7617C382.21 74.7617 382.15 74.8917 382.1 75.1517C382.06 75.3917 381.71 76.9317 381.69 77.3217C381.69 77.5417 381.73 77.6517 381.86 77.6517C381.97 77.6517 382.03 77.5617 382.08 77.4317C382.17 77.2117 382.21 77.0617 382.34 76.8217C382.6 76.3417 382.93 76.2517 384.04 76.1717C384.91 76.1017 386.34 76.1017 387.06 76.1017V83.6217C387.06 85.3417 387.06 86.7317 386.97 87.5117C386.9 88.0517 386.8 88.4417 386.38 88.5317C386.21 88.5717 385.99 88.5717 385.73 88.6017C385.49 88.6017 385.4 88.6917 385.4 88.7717C385.4 88.9017 385.53 88.9917 385.79 88.9917C386.53 88.9917 387.86 88.9217 388.29 88.9217C388.77 88.9217 390.09 88.9917 391.36 88.9917C391.62 88.9917 391.75 88.9017 391.75 88.7717C391.75 88.6817 391.64 88.6017 391.42 88.6017C391.14 88.5817 390.75 88.5617 390.48 88.5117C389.89 88.4417 389.78 88.0317 389.72 87.5317C389.63 86.7317 389.63 85.2717 389.63 83.6217V76.1017C390.83 76.1217 391.63 76.1417 392.15 76.1917C393.76 76.2117 394.22 76.7117 394.26 77.2117C394.26 77.3017 394.28 77.3817 394.28 77.4517C394.3 77.7117 394.32 77.8217 394.48 77.8217C394.61 77.8217 394.65 77.7117 394.68 77.5217C394.68 77.0417 394.77 75.6917 394.77 75.3217C394.77 74.9917 394.75 74.8817 394.62 74.8817V74.8917Z" fill="#F2F2F2"/>
<path d="M411.57 79.6303C412.77 78.6703 413.79 77.6103 413.79 75.8303C413.79 74.6803 413.09 72.5703 409.16 72.5703C408.42 72.5703 407.57 72.6403 406.51 72.6403C406.07 72.6403 404.71 72.5703 403.55 72.5703C403.22 72.5703 403.07 72.6103 403.07 72.7703C403.07 72.9303 403.2 72.9703 403.44 72.9703C403.74 72.9703 404.11 72.9903 404.29 73.0403C405.01 73.1903 405.18 73.5403 405.22 74.2803C405.26 74.9803 405.26 75.5803 405.26 78.8903V82.7203C405.26 84.7203 405.26 86.4403 405.15 87.3503C405.06 87.9803 404.98 88.3903 404.56 88.5203C404.36 88.5803 404.06 88.6303 403.73 88.6303C403.47 88.6303 403.38 88.7003 403.38 88.8003C403.38 88.9503 403.53 89.0203 403.81 89.0203C404.79 89.0203 405.68 88.9503 406.55 88.9503C407.7 88.9503 408.7 89.0803 409.7 89.0803C413.7 89.0803 415.51 86.6703 415.51 84.3403C415.51 81.8003 413.34 80.2503 411.55 79.6403L411.57 79.6303ZM407.87 73.8703C407.87 73.6303 407.91 73.5403 408.07 73.5003C408.29 73.4603 408.48 73.4603 408.79 73.4603C410.66 73.4603 411.51 75.3703 411.51 76.8303C411.51 77.9003 411.18 78.6803 410.62 79.1303C410.25 79.4603 409.77 79.5403 409.05 79.5403C408.55 79.5403 408.22 79.5203 408.03 79.4703C407.94 79.4503 407.88 79.4103 407.88 79.2303V73.8603L407.87 73.8703ZM410.22 88.0903C409.72 88.0903 409.22 88.0703 408.63 87.8303C407.93 87.5503 407.87 87.1803 407.87 85.7403V80.5903C407.87 80.4803 407.91 80.4403 408 80.4403C408.33 80.4403 408.54 80.4403 408.93 80.4603C409.78 80.5003 410.28 80.6603 410.74 80.9803C412.39 82.1303 412.85 83.9603 412.85 85.3103C412.85 87.5703 411.2 88.0903 410.22 88.0903Z" fill="#F2F2F2"/>
<path d="M432.3 75.0217C431.52 75.0217 430.32 75.0917 430.06 75.0917C430 75.0917 428.78 75.0217 427.8 75.0217C427.5 75.0217 427.39 75.0917 427.39 75.2217C427.39 75.3517 427.5 75.4217 427.72 75.4217C427.98 75.4417 428.26 75.4617 428.42 75.5117C429.05 75.6217 429.16 75.9217 429.2 76.5517C429.22 77.1417 429.27 77.5917 429.27 80.3817V82.6917C429.27 84.5817 429.25 86.3017 428.18 87.3017C427.44 88.0217 426.44 88.2317 425.64 88.2317C425.03 88.2317 424.18 88.1617 423.36 87.5317C422.38 86.7917 421.86 85.6817 421.86 83.0117V80.3817C421.86 77.6817 421.86 77.1417 421.9 76.5517C421.92 75.9217 422.07 75.5917 422.6 75.5117C422.82 75.4717 422.97 75.4417 423.17 75.4217C423.37 75.4217 423.5 75.3517 423.5 75.2217C423.5 75.0917 423.37 75.0217 423.07 75.0217C422.4 75.0217 420.98 75.0917 420.57 75.0917C420.07 75.0917 418.74 75.0217 417.77 75.0217C417.47 75.0217 417.31 75.0617 417.31 75.1917C417.31 75.3217 417.44 75.4117 417.66 75.4117C417.92 75.4317 418.27 75.4517 418.44 75.5017C419.03 75.6317 419.16 75.9117 419.2 76.5017C419.24 77.1117 419.24 77.5417 419.24 80.3717V83.0917C419.24 85.7917 419.98 87.1317 420.96 87.9617C422.31 89.1317 424.13 89.2417 425.27 89.2417C426.53 89.2417 427.92 89.0217 429.25 87.9417C430.9 86.5917 431.1 84.4017 431.1 82.3317V80.3717C431.1 77.5917 431.12 77.1117 431.17 76.5217C431.21 75.8717 431.34 75.5917 431.84 75.5017C432.08 75.4317 432.19 75.4317 432.41 75.4117C432.65 75.4117 432.76 75.3417 432.76 75.2117C432.76 75.0817 432.63 75.0117 432.35 75.0117L432.3 75.0217Z" fill="#F2F2F2"/>
<path d="M440.7 88.6117C440.42 88.5917 440.16 88.5917 439.87 88.5217C439.3 88.4517 439.15 88.0617 439.11 87.5617C439.02 86.7817 439 85.3617 439 83.6217V80.3617C439 77.5317 439 77.1017 439.06 76.5117C439.1 75.8817 439.26 75.5517 439.78 75.4717C440 75.4317 440.08 75.4317 440.28 75.4017C440.48 75.4017 440.58 75.3317 440.58 75.1817C440.58 75.0717 440.47 75.0117 440.21 75.0117C439.47 75.0117 438.19 75.0817 437.75 75.0817C437.27 75.0817 435.97 75.0117 435.21 75.0117C434.91 75.0117 434.78 75.0817 434.78 75.1817C434.78 75.3317 434.89 75.4017 435.08 75.4017C435.32 75.4217 435.56 75.4417 435.75 75.4917C436.16 75.5817 436.36 75.8817 436.4 76.4917C436.44 77.1017 436.44 77.5317 436.44 80.3617V83.6217C436.44 85.4217 436.44 86.8217 436.33 87.6017C436.29 88.1217 436.11 88.4517 435.74 88.5317C435.57 88.5717 435.41 88.5717 435.15 88.6017C434.91 88.6017 434.82 88.7117 434.82 88.8017C434.82 88.9317 434.95 89.0017 435.21 89.0017C435.97 89.0017 437.28 88.9317 437.64 88.9317C438.1 88.9317 439.34 89.0017 440.62 89.0017C440.84 89.0017 440.99 88.9317 440.99 88.8017C440.99 88.7117 440.9 88.6017 440.66 88.6017L440.7 88.6117Z" fill="#F2F2F2"/>
<path d="M453.59 85.9413C453.44 85.9413 453.42 86.1113 453.37 86.2913C453.3 86.7513 453.07 87.2512 452.8 87.4912C452.3 87.9512 451.56 87.9713 450.56 87.9713C449.04 87.9713 448.56 87.8413 448.26 87.5413C447.87 87.2113 447.87 85.9313 447.87 83.6513V80.4313C447.87 77.5613 447.87 77.1512 447.91 76.5612C447.95 75.9112 448.11 75.6012 448.63 75.5212C448.87 75.4512 449.13 75.4513 449.35 75.4313C449.61 75.4313 449.72 75.3613 449.72 75.2313C449.72 75.1013 449.61 75.0312 449.31 75.0312C448.57 75.0312 447.01 75.1012 446.59 75.1012C446.02 75.1012 444.85 75.0312 443.94 75.0312C443.64 75.0312 443.48 75.1013 443.48 75.2313C443.48 75.3613 443.61 75.4313 443.83 75.4313C444.07 75.4513 444.33 75.4712 444.48 75.5212C445.07 75.6512 445.22 75.9313 445.26 76.5413C445.3 77.1313 445.3 77.5613 445.3 80.3913V83.6513C445.3 85.2413 445.3 86.6313 445.21 87.3913C445.15 88.1113 445.01 88.4612 444.56 88.5612C444.41 88.6012 444.19 88.6012 443.95 88.6312C443.73 88.6512 443.62 88.7413 443.62 88.8313C443.62 88.9613 443.77 89.0312 444.03 89.0312C444.92 89.0312 445.73 88.9613 446.51 88.9613C448.55 88.9613 450.32 89.0713 452.25 89.0713C453.21 89.0713 453.29 89.0113 453.42 88.5713C453.57 88.0513 453.75 86.5713 453.75 86.3313C453.75 86.1113 453.73 85.9613 453.58 85.9613L453.59 85.9413Z" fill="#F2F2F2"/>
<path d="M461.49 75.0195C460.23 75.0195 459.12 75.0895 458.49 75.0895C457.9 75.0895 456.6 75.0195 455.69 75.0195C455.41 75.0195 455.28 75.0595 455.28 75.1895C455.28 75.3195 455.39 75.3895 455.61 75.3895L456.35 75.4495C457 75.5195 457.13 75.9095 457.18 76.5195C457.22 77.1095 457.22 77.5895 457.22 80.3695V83.6295C457.22 86.5395 457.31 88.4095 456.57 88.5395C456.33 88.5795 456.11 88.6095 455.9 88.6095C455.69 88.6095 455.57 88.7195 455.57 88.8095C455.57 88.9395 455.68 89.0095 455.94 89.0095C456.74 89.0095 457.92 88.9395 458.44 88.9395C459.38 88.9395 461.09 89.1595 462.48 89.1595C466.07 89.1595 467.94 87.8595 468.83 86.9895C469.9 85.9195 470.92 84.1595 470.92 81.8595C470.92 79.5595 470.03 78.0995 469.07 77.1595C467.03 75.1195 464.07 75.0295 461.5 75.0295L461.49 75.0195ZM466.62 86.8695C465.49 87.8495 464.29 88.1995 462.47 88.1995C461.08 88.1995 460.27 87.8295 460.06 87.4795C459.86 87.1795 459.84 86.6095 459.82 86.0895C459.8 85.7395 459.78 84.3695 459.78 82.4195V80.1395C459.78 76.3595 459.82 76.3095 460.02 76.1595C460.15 76.0495 460.85 75.9895 461.24 75.9895C462.67 75.9895 464.74 76.2495 466.39 77.8595C467.22 78.6895 468.17 80.1395 468.17 82.3595C468.17 84.2495 467.82 85.8795 466.63 86.8795L466.62 86.8695Z" fill="#F2F2F2"/>
<path d="M479.46 88.6117C479.18 88.5917 478.92 88.5917 478.63 88.5217C478.06 88.4517 477.91 88.0617 477.87 87.5617C477.78 86.7817 477.76 85.3617 477.76 83.6217V80.3617C477.76 77.5317 477.76 77.1017 477.82 76.5117C477.86 75.8817 478.02 75.5517 478.54 75.4717C478.76 75.4317 478.84 75.4317 479.04 75.4017C479.24 75.4017 479.34 75.3317 479.34 75.1817C479.34 75.0717 479.23 75.0117 478.97 75.0117C478.23 75.0117 476.95 75.0817 476.51 75.0817C476.03 75.0817 474.73 75.0117 473.97 75.0117C473.67 75.0117 473.54 75.0817 473.54 75.1817C473.54 75.3317 473.65 75.4017 473.84 75.4017C474.08 75.4217 474.32 75.4417 474.51 75.4917C474.92 75.5817 475.12 75.8817 475.16 76.4917C475.2 77.1017 475.2 77.5317 475.2 80.3617V83.6217C475.2 85.4217 475.2 86.8217 475.09 87.6017C475.05 88.1217 474.87 88.4517 474.5 88.5317C474.33 88.5717 474.17 88.5717 473.91 88.6017C473.67 88.6017 473.58 88.7117 473.58 88.8017C473.58 88.9317 473.71 89.0017 473.97 89.0017C474.73 89.0017 476.04 88.9317 476.4 88.9317C476.86 88.9317 478.1 89.0017 479.38 89.0017C479.6 89.0017 479.75 88.9317 479.75 88.8017C479.75 88.7117 479.66 88.6017 479.42 88.6017L479.46 88.6117Z" fill="#F2F2F2"/>
<path d="M497.57 75.0209C496.66 75.0209 495.87 75.0909 495.64 75.0909C495.16 75.0909 494.18 75.0209 493.23 75.0209C492.97 75.0209 492.75 75.0409 492.75 75.1909C492.75 75.3009 492.84 75.4109 493.08 75.4109C493.34 75.4309 493.78 75.4309 494.06 75.5209C494.58 75.7209 494.73 76.0909 494.76 77.1909L494.93 85.2309C494.58 84.9309 492.15 82.4509 490.73 81.1009C487.62 78.1909 485.08 75.5609 484.73 75.2509C484.4 74.9209 484.23 74.7109 484.03 74.7109C483.81 74.7109 483.75 74.9709 483.75 75.3809C483.75 77.8109 483.64 82.3609 483.6 86.2709C483.58 87.8809 483.49 88.3609 482.95 88.5109C482.69 88.5809 482.36 88.5809 482.12 88.6009C481.92 88.6009 481.82 88.6909 481.82 88.8009C481.82 88.9709 481.99 89.0009 482.23 89.0009C483.16 89.0009 484.17 88.9309 484.4 88.9309C484.9 88.9309 485.66 89.0009 486.79 89.0009C487.05 89.0009 487.22 88.9309 487.22 88.7809C487.22 88.6709 487.09 88.6109 486.89 88.6109C486.56 88.5909 486.19 88.5909 485.87 88.4809C485.48 88.3509 485.26 87.8909 485.22 86.4809L485.02 78.9409C485.54 79.4809 487.67 81.7409 489.59 83.5309C491.39 85.2709 493.72 87.5109 494.94 88.6209C495.35 88.9909 495.64 89.2309 495.88 89.2309C496.05 89.2309 496.16 89.0609 496.16 88.5609C496.23 84.6909 496.27 79.8409 496.36 77.0609C496.38 76.0209 496.56 75.6509 497.12 75.4909C497.32 75.4509 497.47 75.4509 497.66 75.4209C497.9 75.4209 497.99 75.3309 497.99 75.2209C497.99 75.0709 497.82 75.0209 497.58 75.0209H497.57Z" fill="#F2F2F2"/>
<path d="M515.19 82.0717C514.47 82.0717 513.43 82.1117 512.82 82.1117C512.21 82.1117 510.99 82.0717 509.95 82.0717C509.67 82.0717 509.54 82.1117 509.54 82.2417C509.54 82.3517 509.67 82.4417 509.84 82.4417C510.12 82.4617 510.41 82.4817 510.58 82.5017C511.23 82.5917 511.41 82.9417 511.43 83.6517C511.45 84.2417 511.45 84.8917 511.45 85.7817V87.3517C511.45 87.6517 511.38 87.8917 511.1 88.0017C510.69 88.2217 510.06 88.2217 509.6 88.2217C505.56 88.2217 503.12 85.1817 503.12 81.3517C503.12 79.1517 503.75 77.8317 504.77 76.9617C506.01 75.8917 507.38 75.7617 508.51 75.7617C510.75 75.7617 512.29 76.6317 512.82 77.3517C513.28 77.8517 513.34 78.3717 513.41 78.7617C513.43 78.9117 513.45 79.0217 513.61 79.0217C513.77 79.0217 513.83 78.9317 513.83 78.6317C513.83 76.2817 513.98 75.7417 513.98 75.5217C513.98 75.3917 513.96 75.2817 513.74 75.2617C513.28 75.2417 512.61 75.1317 512.17 75.0617C511.69 74.9517 510.13 74.7617 508.82 74.7617C507.25 74.7617 505.47 74.8917 503.6 75.9617C501.86 76.9817 500.25 79.0317 500.25 82.0017C500.25 87.0717 504.34 89.2417 509.17 89.2417C510.69 89.2417 512.58 89.0217 513.78 88.4417C514.02 88.3117 514.06 88.2717 514.06 87.6617V85.7717C514.06 84.8417 514.06 84.1217 514.08 83.5317C514.1 82.9017 514.25 82.5517 514.8 82.4917C515.04 82.4717 515.08 82.4717 515.32 82.4517C515.47 82.4317 515.58 82.3617 515.58 82.2517C515.58 82.1217 515.43 82.0817 515.19 82.0817V82.0717Z" fill="#F2F2F2"/>
<path d="M326.43 75.0209C325.52 75.0209 324.73 75.0909 324.5 75.0909C324.02 75.0909 323.04 75.0209 322.09 75.0209C321.83 75.0209 321.61 75.0409 321.61 75.1909C321.61 75.3009 321.7 75.4109 321.94 75.4109C322.2 75.4309 322.64 75.4309 322.92 75.5209C323.44 75.7209 323.59 76.0909 323.62 77.1909L323.79 85.2309C323.44 84.9309 321.01 82.4509 319.59 81.1009C316.48 78.1909 313.94 75.5609 313.59 75.2509C313.26 74.9209 313.09 74.7109 312.89 74.7109C312.67 74.7109 312.61 74.9709 312.61 75.3809C312.61 77.8109 312.5 82.3609 312.46 86.2709C312.46 86.8109 312.47 87.3809 312.34 87.9109C312.22 88.3809 311.89 88.5309 311.41 88.5709C310.92 88.6109 310.42 88.6109 309.93 88.5509C309.58 88.4609 308.86 88.3809 307.82 87.2709C306.69 86.1209 305.34 84.4009 303.73 82.4009C305.62 80.9909 306.27 79.7509 306.27 78.3609C306.27 77.1009 305.47 76.1609 304.86 75.7709C303.88 75.1409 302.6 75.0109 301.29 75.0109C300.64 75.0109 299.09 75.0809 298.51 75.0809C298.14 75.0809 296.81 75.0109 295.84 75.0109C295.56 75.0109 295.43 75.0809 295.43 75.2109C295.43 75.3409 295.54 75.4109 295.76 75.4109C296 75.4309 296.26 75.4509 296.5 75.5009C297.09 75.6109 297.26 75.8909 297.3 76.5409C297.34 77.1309 297.34 77.5409 297.34 80.3709V83.6309C297.34 85.3509 297.34 86.7409 297.23 87.5009C297.19 88.0709 297.06 88.4609 296.69 88.5409C296.52 88.5809 296.28 88.5809 295.99 88.6109C295.77 88.6109 295.69 88.7209 295.69 88.8109C295.69 88.9409 295.82 89.0109 296.06 89.0109C296.82 89.0109 298.15 88.9409 298.47 88.9409C298.75 88.9409 300.27 89.0109 301.43 89.0109C301.67 89.0109 301.8 88.9209 301.8 88.7909C301.8 88.7009 301.73 88.6209 301.56 88.6209C301.3 88.6009 300.91 88.6009 300.65 88.5309C300.06 88.4609 299.93 88.0509 299.89 87.5109C299.8 86.7509 299.8 85.4709 299.8 83.7909V83.4009C299.8 83.2909 299.86 83.2509 299.95 83.2509L301.49 83.2909C301.62 83.2909 301.73 83.3109 301.79 83.4009C302.07 83.7309 302.88 84.8809 303.66 85.9709C304.66 87.3409 305.38 88.1909 306.14 88.6009C306.68 88.8809 307.23 89.0109 308.49 89.0109C309.39 89.0109 310.29 89.0109 311.19 89.0109C311.88 89.0109 312.57 88.9509 313.26 88.9509C313.76 88.9509 314.52 89.0209 315.65 89.0209C315.91 89.0209 316.08 88.9509 316.08 88.8009C316.08 88.6909 315.95 88.6309 315.75 88.6309C315.42 88.6109 315.05 88.6109 314.73 88.5009C314.34 88.3709 314.12 87.9109 314.08 86.5009L313.88 78.9609C314.4 79.5009 316.53 81.7609 318.45 83.5509C320.25 85.2909 322.58 87.5309 323.8 88.6409C324.21 89.0109 324.5 89.2509 324.74 89.2509C324.91 89.2509 325.02 89.0809 325.02 88.5809C325.09 84.7109 325.13 79.8609 325.22 77.0809C325.24 76.0409 325.42 75.6709 325.98 75.5109C326.18 75.4709 326.33 75.4709 326.52 75.4409C326.76 75.4409 326.85 75.3509 326.85 75.2409C326.85 75.0909 326.68 75.0409 326.44 75.0409L326.43 75.0209ZM302.75 81.9809C302.42 82.2209 302.12 82.3109 301.42 82.3109C300.92 82.3109 300.35 82.2409 299.96 82.0909C299.83 82.0509 299.79 81.9609 299.79 81.7909V76.3309C299.79 76.1809 299.83 76.1109 299.94 76.0709C300.11 76.0009 300.46 75.9809 300.92 75.9809C302.01 75.9809 303.81 76.6809 303.81 79.3109C303.81 80.7909 303.29 81.5909 302.74 81.9809H302.75Z" fill="#F2F2F2"/>
</g>
<defs>
<clipPath id="clip0_549_2">
<rect width="548.41" height="89.31" fill="white"/>
</clipPath>
</defs>
</svg>
