<?xml version="1.0" encoding="UTF-8"?><svg id="Layer_2" xmlns="http://www.w3.org/2000/svg" viewBox="0 0 619.73 350.41"><defs><style>.cls-1{fill:#404040;}.cls-1,.cls-2,.cls-3{stroke-width:0px;}.cls-2{fill:#aeaeae;}.cls-3{fill:#fff;}</style></defs><g id="art"><path class="cls-1" d="m611.73,175.21c0-21.89-7.66-43.22-22.76-63.41-14.94-19.97-36.45-37.98-63.94-53.52-27.81-15.72-60.25-28.08-96.42-36.73-37.59-8.99-77.55-13.55-118.75-13.55s-81.16,4.56-118.75,13.55c-36.17,8.65-68.61,21.01-96.42,36.73-27.49,15.54-49,33.55-63.94,53.52-15.1,20.19-22.76,41.52-22.76,63.41s7.66,43.22,22.76,63.41c14.94,19.97,36.45,37.98,63.94,53.52,27.81,15.72,60.25,28.08,96.42,36.73,37.59,8.99,77.55,13.55,118.75,13.55s81.16-4.56,118.75-13.55c36.17-8.65,68.61-21.01,96.42-36.73,27.49-15.54,49-33.55,63.94-53.52,15.1-20.19,22.76-41.52,22.76-63.41Z"/><path class="cls-3" d="m309.87,14.09c162.72,0,295.09,72.42,295.09,161.45s-132.38,161.45-295.09,161.45S14.77,264.56,14.77,175.53,147.15,14.09,309.87,14.09m0-2C145.79,12.09,12.78,85.27,12.78,175.53s133.01,163.44,297.09,163.44,297.09-73.18,297.09-163.44S473.95,12.09,309.87,12.09h0Z"/><path class="cls-3" d="m50.39,154.42c0-9.88,0-11.7-.13-13.78-.13-2.21-.65-3.25-2.79-3.71-.52-.13-1.62-.19-2.54-.19-.65,0-1.1-.13-1.1-.52,0-.52.52-.65,1.5-.65,2.99,0,5.98.2,9.36.2,2.47,0,15.67,0,17.16-.06,1.24-.07,2.02-.07,2.67-.26.39-.13.71-.39,1.04-.39.26,0,.46.26.46.58,0,.46-.33,1.24-.52,2.92-.07.65-.2,4.49-.33,5.27-.07.52-.2.91-.65.91s-.58-.33-.65-1.04c0-.52,0-1.56-.39-2.47-.46-.91-1.82-1.88-4.29-1.95-2.28-.07-8.06-.13-10.01-.2-.39,0-.58.2-.58.91v16.25c0,.39.07.58.46.58,1.75,0,5.98-.06,8.32-.06,3.77,0,4.81,0,5.72-1.24.33-.39.46-.65.84-.65.26,0,.39.2.39.59s-.32,2.01-.52,4.03c-.13,1.3-.26,4.29-.26,4.75,0,.58,0,1.23-.65,1.23-.39,0-.52-.46-.52-.91s-.13-1.23-.39-2.01c-.33-.91-1.3-2.08-3.31-2.34-1.63-.2-8.52-.2-9.62-.2-.33,0-.46.13-.46.58v5.27c0,6.24,0,11.12.33,13.84.2,1.89.58,3.32,2.54,3.58.91.13,2.34.26,3.25.26.85,0,1.11.19,1.11.52,0,.46-.46.65-1.43.65-4.09,0-8.19-.2-9.88-.2s-5.79.2-8.26.2c-.91,0-1.36-.13-1.36-.65,0-.33.26-.52.97-.52.98,0,1.75-.13,2.34-.26,1.3-.26,1.62-1.69,1.89-3.58.32-2.73.32-7.6.32-13.84v-11.44Z"/><path class="cls-3" d="m94.65,166.77c0,8,1.56,11.31,4.48,13.52,2.47,1.89,5,2.08,6.83,2.08,2.41,0,5.4-.65,7.61-2.79,3.19-2.99,3.25-8.12,3.25-13.78v-6.89c0-8.32-.13-9.68-.2-11.44-.13-1.88-.45-2.79-2.34-3.12-.46-.13-1.3-.19-2.08-.26-.65,0-.97-.2-.97-.58s.33-.58,1.23-.58c2.93,0,6.57.2,6.76.2.78,0,4.36-.2,6.7-.2.84,0,1.24.2,1.24.58s-.33.58-1.04.58c-.65.07-.98.07-1.69.26-1.5.26-1.88,1.11-2.01,3.06-.13,1.75-.2,3.18-.2,11.5v5.85c0,6.17-.58,12.74-5.53,16.77-3.96,3.25-8.12,3.9-11.9,3.9-3.38,0-8.84-.33-12.87-3.83-2.92-2.47-5.13-6.5-5.13-14.56v-8.13c0-8.45,0-9.75-.13-11.57-.13-1.75-.52-2.6-2.27-2.99-.52-.13-1.56-.19-2.34-.26-.65,0-1.04-.26-1.04-.65s.46-.52,1.37-.52c2.93,0,6.89.2,8.39.2,1.24,0,5.46-.2,7.48-.2.91,0,1.3.2,1.3.58s-.39.58-.98.58c-.58.07-1.04.13-1.69.26-1.56.26-2.02,1.24-2.08,3.12-.13,1.76-.13,3.38-.13,11.44v7.87Z"/><path class="cls-3" d="m146.46,168.66c0,6.83,0,10.66,1.17,11.63.91.91,2.34,1.3,6.89,1.3,2.99,0,5.2-.07,6.7-1.43.78-.71,1.5-2.21,1.69-3.58.13-.52.2-1.04.65-1.04s.52.46.52,1.11c0,.71-.52,5.13-.97,6.7-.39,1.3-.65,1.5-3.51,1.5-5.79,0-11.05-.33-17.16-.33-2.34,0-4.75.2-7.41.2-.78,0-1.24-.2-1.24-.58,0-.26.33-.52.98-.58.71-.07,1.36-.07,1.82-.2,1.37-.33,1.76-1.37,1.95-3.51.26-2.27.26-6.43.26-11.18v-9.75c0-8.45,0-9.75-.13-11.5-.13-1.82-.58-2.67-2.34-3.06-.46-.13-1.23-.19-1.95-.26-.65,0-1.04-.2-1.04-.58s.46-.58,1.37-.58c2.73,0,6.24.2,7.93.2,1.23,0,5.92-.2,8.12-.2.91,0,1.24.2,1.24.58s-.33.58-1.11.58c-.65.07-1.43.07-2.14.26-1.56.26-2.02,1.17-2.15,3.12-.13,1.76-.13,2.99-.13,11.57v9.62Z"/><path class="cls-3" d="m181.75,168.66c0,6.83,0,10.66,1.17,11.63.91.91,2.34,1.3,6.89,1.3,2.99,0,5.2-.07,6.7-1.43.78-.71,1.5-2.21,1.69-3.58.13-.52.2-1.04.65-1.04s.52.46.52,1.11c0,.71-.52,5.13-.97,6.7-.39,1.3-.65,1.5-3.51,1.5-5.79,0-11.05-.33-17.16-.33-2.34,0-4.75.2-7.41.2-.78,0-1.24-.2-1.24-.58,0-.26.33-.52.98-.58.71-.07,1.36-.07,1.82-.2,1.37-.33,1.76-1.37,1.95-3.51.26-2.27.26-6.43.26-11.18v-9.75c0-8.45,0-9.75-.13-11.5-.13-1.82-.58-2.67-2.34-3.06-.46-.13-1.23-.19-1.95-.26-.65,0-1.04-.2-1.04-.58s.46-.58,1.37-.58c2.73,0,6.24.2,7.93.2,1.23,0,5.92-.2,8.12-.2.91,0,1.24.2,1.24.58s-.33.58-1.11.58c-.65.07-1.43.07-2.14.26-1.56.26-2.02,1.17-2.15,3.12-.13,1.76-.13,2.99-.13,11.57v9.62Z"/><path class="cls-3" d="m212.95,171c-.26,0-.39.13-.52.46l-2.86,7.08c-.52,1.37-.85,2.73-.85,3.38,0,1.63,2.02,1.69,3.25,1.69.78,0,.98.26.98.52,0,.46-.46.58-1.04.58-2.02,0-4.36-.2-6.37-.2-.65,0-3.9.2-6.89.2-.71,0-1.04-.13-1.04-.58,0-.33.33-.58.78-.58,4.09-.39,5-1.17,6.5-4.94l13.78-32.57c1.17-3.05,1.82-4.29,2.54-4.29.52,0,.85.58,1.5,2.01,1.11,3.19,10.73,25.35,14.37,33.67,2.08,4.88,3.71,5.72,5.07,5.98.59.13,1.56.13,2.15.13.71,0,.97.26.97.58,0,.39-.26.58-1.1.58-2.73,0-9.56.13-13.65-.13-.58-.07-.98-.2-.98-.52,0-.26.26-.39.58-.52.58-.2,1.04-.39.65-1.17l-4.42-10.99c-.07-.26-.26-.39-.52-.39h-12.87Zm11.64-3.25c.32,0,.32-.13.26-.33l-5.07-13.26c-.2-.52-.39-.65-.65,0l-5.13,13.26c-.07.2,0,.33.26.33h10.34Z"/><path class="cls-3" d="m251.11,158.91c0-8.45,0-9.68-.13-11.44-.13-1.95-.65-2.79-2.4-3.12-.72-.13-1.5-.19-2.21-.26-.65,0-.98-.2-.98-.58s.39-.58,1.24-.58c2.92,0,6.89.2,8,.2,1.75,0,6.37-.2,8.32-.2,3.9,0,7.74.39,10.66,2.28,1.82,1.17,4.23,3.96,4.23,7.74,0,4.16-1.95,7.87-7.61,12.09,4.81,5.98,8.84,11.12,12.22,14.56,3.12,3.32,5.26,3.58,6.3,3.83.58.07,1.04.07,1.5.13.52,0,.78.26.78.52,0,.46-.39.65-1.11.65h-5.46c-3.77,0-5.4-.39-7.02-1.24-2.27-1.24-4.42-3.77-7.41-7.87-2.34-3.25-4.75-6.7-5.59-7.67-.2-.26-.52-.33-.91-.33l-4.62-.13c-.26,0-.46.13-.46.46v1.17c0,5,0,8.84.26,11.12.13,1.62.52,2.86,2.28,3.05.78.2,1.95.2,2.73.26.52,0,.71.26.71.52,0,.39-.39.65-1.11.65-3.45,0-8-.2-8.84-.2-.98,0-4.94.2-7.22.2-.71,0-1.1-.2-1.1-.58,0-.26.26-.58.91-.58.84-.07,1.56-.07,2.08-.2,1.1-.26,1.5-1.43,1.62-3.12.33-2.28.33-6.44.33-11.57v-9.75Zm7.34,4.23c0,.52.13.78.52.91,1.17.46,2.86.65,4.35.65,2.08,0,2.99-.26,3.97-.97,1.62-1.17,3.18-3.58,3.18-8,0-7.87-5.39-9.95-8.65-9.95-1.36,0-2.4.06-2.92.26-.33.13-.46.33-.46.78v16.32Z"/><path class="cls-3" d="m295.82,158.91c0-8.32,0-9.75-.13-11.5-.13-1.82-.52-2.99-2.47-3.19l-2.21-.19c-.65,0-.98-.2-.98-.58s.39-.52,1.24-.52c2.73,0,6.63.2,8.39.2,1.88,0,5.2-.2,8.97-.2,7.67,0,16.51.26,22.62,6.37,2.86,2.79,5.53,7.41,5.53,14.04s-3.06,12.16-6.24,15.34c-2.67,2.6-8.25,6.5-18.98,6.5-4.16,0-9.3-.65-12.09-.65-1.56,0-5.07.2-7.48.2-.78,0-1.1-.2-1.1-.58,0-.26.33-.58.97-.58s1.3-.07,2.02-.2c2.21-.39,1.95-5.98,1.95-14.69v-9.75Zm7.67,6.11c0,5.85.07,9.95.13,10.99.07,1.56.13,3.25.71,4.16.65,1.04,3.06,2.15,7.22,2.15,5.46,0,9.04-1.04,12.42-3.96,3.58-2.99,4.62-7.87,4.62-13.52,0-6.63-2.86-10.99-5.33-13.46-4.94-4.81-11.12-5.59-15.41-5.59-1.17,0-3.25.19-3.64.52-.58.46-.71.58-.71,11.9v6.83Z"/><path class="cls-3" d="m370.38,154.42c0-9.88,0-11.7-.13-13.78-.13-2.21-.65-3.25-2.79-3.71-.52-.13-1.62-.19-2.54-.19-.71,0-1.11-.13-1.11-.59s.46-.58,1.43-.58c3.45,0,7.54.2,8.84.2,3.19,0,5.72-.2,7.93-.2,11.77,0,13.85,6.31,13.85,9.75,0,5.33-3.06,8.52-6.63,11.38,5.33,1.82,11.83,6.44,11.83,14.04,0,6.96-5.4,14.17-17.36,14.17-2.99,0-5.98-.39-9.43-.39-2.6,0-5.27.2-8.19.2-.84,0-1.3-.2-1.3-.65,0-.33.26-.52,1.04-.52.97,0,1.88-.13,2.47-.33,1.24-.39,1.5-1.62,1.75-3.51.33-2.73.33-7.87.33-13.84v-11.44Zm7.8,1.1c0,.52.19.65.46.71.58.13,1.56.2,3.05.2,2.15,0,3.58-.26,4.68-1.24,1.69-1.36,2.67-3.71,2.67-6.89,0-4.36-2.54-10.08-8.13-10.08-.91,0-1.5,0-2.14.13-.46.13-.58.39-.58,1.1v16.06Zm0,8.84v10.59c0,4.29.19,5.4,2.27,6.24,1.76.71,3.25.78,4.75.78,2.92,0,7.87-1.56,7.87-8.32,0-4.03-1.37-9.49-6.31-12.94-1.37-.97-2.86-1.43-5.4-1.56-1.17-.07-1.82-.07-2.79-.07-.26,0-.39.13-.39.46v4.81Z"/><path class="cls-3" d="m408.4,163.85c0-9.75,6.5-21.71,23.6-21.71,14.3,0,23.01,8.78,23.01,20.67,0,12.68-8.91,22.62-23.53,22.62-16.32,0-23.08-11.77-23.08-21.58Zm38.16,1.04c0-11.77-6.76-19.83-16.25-19.83-6.37,0-13.52,3.25-13.52,16.9,0,11.31,6.18,20.41,16.97,20.41,3.96,0,12.81-1.62,12.81-17.49Z"/><path class="cls-3" d="m470.48,171c-.26,0-.39.13-.52.46l-2.86,7.08c-.52,1.37-.85,2.73-.85,3.38,0,1.63,2.02,1.69,3.25,1.69.78,0,.98.26.98.52,0,.46-.46.58-1.04.58-2.02,0-4.36-.2-6.37-.2-.65,0-3.9.2-6.89.2-.71,0-1.04-.13-1.04-.58,0-.33.33-.58.78-.58,4.09-.39,5-1.17,6.5-4.94l13.78-32.57c1.17-3.05,1.82-4.29,2.54-4.29.52,0,.85.58,1.5,2.01,1.11,3.19,10.73,25.35,14.37,33.67,2.08,4.88,3.71,5.72,5.07,5.98.59.13,1.56.13,2.15.13.71,0,.97.26.97.58,0,.39-.26.58-1.1.58-2.73,0-9.56.13-13.65-.13-.58-.07-.98-.2-.98-.52,0-.26.26-.39.58-.52.58-.2,1.04-.39.65-1.17l-4.42-10.99c-.07-.26-.26-.39-.52-.39h-12.87Zm11.64-3.25c.32,0,.32-.13.26-.33l-5.07-13.26c-.2-.52-.39-.65-.65,0l-5.13,13.26c-.07.2,0,.33.26.33h10.34Z"/><path class="cls-3" d="m524.43,168.66c0,4.94,0,9.29.26,11.7.19,1.5.52,2.73,2.27,2.92.78.13,1.95.2,2.8.26.65,0,.97.26.97.52,0,.39-.39.65-1.17.65-3.77,0-7.74-.2-9.17-.2-1.3,0-5.27.2-7.48.2-.78,0-1.17-.26-1.17-.65,0-.26.26-.52.97-.52.78-.07,1.43-.07,1.95-.2,1.24-.26,1.56-1.43,1.75-3.06.26-2.34.26-6.5.26-11.63v-22.49c-2.15,0-6.44,0-9.04.2-3.31.26-4.29.52-5.07,1.95-.39.71-.52,1.17-.78,1.82-.13.39-.33.65-.65.65-.39,0-.52-.33-.52-.97.06-1.17,1.1-5.79,1.23-6.5.13-.78.33-1.17.65-1.17.46,0,.97.52,2.41.65,1.56.2,3.9.33,5.85.33h23.01c1.82,0,3.05-.2,3.9-.33.85-.13,1.3-.26,1.62-.26.39,0,.46.32.46,1.3,0,1.1-.26,5.13-.26,6.57-.07.58-.2.91-.58.91-.46,0-.52-.33-.58-1.11,0-.2-.07-.46-.07-.71-.13-1.5-1.5-2.99-6.3-3.06-1.56-.13-3.97-.19-7.54-.26v22.49Z"/><path class="cls-3" d="m546.98,184c-.91-.39-1.11-.78-1.11-1.88,0-3.31.2-6.57.26-7.54.06-.91.26-1.43.71-1.43.52,0,.58.45.65.91.07.72.07,1.69.39,2.6,1.17,4.23,4.75,5.98,8.45,5.98,5.2,0,7.54-3.19,7.54-6.05,0-2.6-.78-5.07-5.59-8.58l-2.73-2.08c-6.44-4.88-8.52-8.58-8.52-13.13,0-6.11,5.27-10.66,13.39-10.66,2.6,0,4.16.33,5.79.58.91.13,1.69.33,2.34.39.52.06.65.33.65.71,0,.91-.26,2.47-.26,6.89,0,1.24-.2,1.69-.65,1.69-.39,0-.58-.39-.65-1.1-.07-.72-.46-2.28-1.3-3.51-.97-1.5-2.79-2.92-6.5-2.92-4.29,0-6.76,2.34-6.76,5.53,0,2.4,1.17,4.55,5.85,7.74l1.82,1.23c7.28,4.94,9.62,8.78,9.62,14.04,0,3.38-1.43,7.21-5.59,9.82-2.92,1.75-6.24,2.21-9.23,2.21-3.51,0-6.11-.39-8.58-1.43Z"/><path class="cls-3" d="m78.67,217.75c0,2,0,3.72.11,4.65.07.61.2,1.09.85,1.17.3.04.78.09,1.11.09.24,0,.35.07.35.17,0,.15-.17.22-.41.22-1.44,0-2.8-.07-3.41-.07-.5,0-1.87.07-2.74.07-.28,0-.44-.07-.44-.22,0-.11.09-.17.35-.17.33,0,.59-.04.78-.09.44-.09.57-.57.63-1.2.11-.91.11-2.63.11-4.63v-8.92c-.83.02-2.17.07-3.24.09-1.26.04-1.78.15-2.11.63-.22.33-.33.59-.37.76-.04.17-.11.26-.24.26-.15,0-.2-.11-.2-.35,0-.35.41-2.33.46-2.5.07-.28.13-.41.26-.41.17,0,.39.22.93.26.63.07,1.46.11,2.17.11h8.61c.7,0,1.17-.07,1.5-.11.33-.06.5-.11.59-.11.15,0,.17.13.17.46,0,.46-.07,1.96-.07,2.52-.02.22-.07.35-.2.35-.17,0-.22-.11-.24-.44,0-.06-.02-.17-.02-.24-.04-.57-.63-1.17-2.57-1.22-.57-.02-1.46-.04-2.74-.07v8.92Z"/><path class="cls-3" d="m88.04,215.42c0-2.83,0-3.24-.04-3.83-.04-.65-.22-.94-.8-1.04-.24-.04-.5-.07-.74-.09-.22,0-.33-.07-.33-.2s.13-.2.41-.2c.98,0,2.3.07,2.67.07.59,0,2.13-.07,2.78-.07,1.3,0,2.59.13,3.57.76.61.39,1.41,1.33,1.41,2.59,0,1.39-.65,2.63-2.54,4.04,1.61,2,2.96,3.72,4.09,4.87,1.04,1.11,1.76,1.2,2.11,1.28.2.02.35.02.5.04.17,0,.26.09.26.17,0,.15-.13.22-.37.22h-1.83c-1.26,0-1.81-.13-2.35-.41-.76-.41-1.48-1.26-2.48-2.63-.78-1.09-1.59-2.24-1.87-2.57-.07-.09-.17-.11-.3-.11l-1.54-.04c-.09,0-.15.04-.15.15v.39c0,1.67,0,2.96.09,3.72.04.54.17.96.76,1.02.26.07.65.07.91.09.17,0,.24.09.24.17,0,.13-.13.22-.37.22-1.15,0-2.67-.07-2.96-.07-.33,0-1.65.07-2.41.07-.24,0-.37-.07-.37-.2,0-.09.09-.2.3-.2.28-.02.52-.02.7-.07.37-.09.5-.48.54-1.04.11-.76.11-2.15.11-3.87v-3.26Zm2.46,1.41c0,.17.04.26.17.3.39.15.96.22,1.46.22.7,0,1-.09,1.33-.33.54-.39,1.07-1.2,1.07-2.67,0-2.63-1.8-3.33-2.89-3.33-.46,0-.8.02-.98.09-.11.04-.15.11-.15.26v5.46Z"/><path class="cls-3" d="m103.75,219.47c-.09,0-.13.04-.17.15l-.96,2.37c-.17.46-.28.91-.28,1.13,0,.54.67.57,1.09.57.26,0,.33.09.33.17,0,.15-.15.2-.35.2-.67,0-1.46-.07-2.13-.07-.22,0-1.3.07-2.3.07-.24,0-.35-.04-.35-.2,0-.11.11-.2.26-.2,1.37-.13,1.67-.39,2.17-1.65l4.61-10.89c.39-1.02.61-1.44.85-1.44.17,0,.28.2.5.67.37,1.07,3.59,8.48,4.8,11.26.7,1.63,1.24,1.91,1.7,2,.2.04.52.04.72.04.24,0,.33.09.33.2,0,.13-.09.2-.37.2-.91,0-3.2.04-4.57-.04-.2-.02-.33-.07-.33-.17,0-.09.09-.13.2-.17.2-.07.35-.13.22-.39l-1.48-3.67c-.02-.09-.09-.13-.17-.13h-4.3Zm3.89-1.09c.11,0,.11-.04.09-.11l-1.7-4.44c-.07-.17-.13-.22-.22,0l-1.72,4.44c-.02.07,0,.11.09.11h3.46Z"/><path class="cls-3" d="m116.71,215.42c0-2.78,0-3.26-.04-3.85-.04-.61-.17-1-.83-1.07l-.74-.06c-.22,0-.33-.07-.33-.2s.13-.17.41-.17c.91,0,2.22.07,2.8.07.63,0,1.74-.07,3-.07,2.57,0,5.52.09,7.57,2.13.96.93,1.85,2.48,1.85,4.7s-1.02,4.07-2.09,5.13c-.89.87-2.76,2.17-6.35,2.17-1.39,0-3.11-.22-4.04-.22-.52,0-1.7.07-2.5.07-.26,0-.37-.07-.37-.2,0-.09.11-.2.33-.2s.44-.02.67-.07c.74-.13.65-2,.65-4.91v-3.26Zm2.57,2.04c0,1.96.02,3.33.04,3.67.02.52.04,1.09.24,1.39.22.35,1.02.72,2.41.72,1.83,0,3.02-.35,4.15-1.33,1.2-1,1.54-2.63,1.54-4.52,0-2.22-.96-3.67-1.78-4.5-1.65-1.61-3.72-1.87-5.15-1.87-.39,0-1.09.06-1.22.17-.2.15-.24.2-.24,3.98v2.28Z"/><path class="cls-3" d="m134.72,215.42c0-2.83,0-3.26-.04-3.87-.04-.61-.24-.91-.65-1-.2-.04-.43-.07-.67-.09-.2,0-.3-.07-.3-.22,0-.11.13-.17.43-.17.76,0,2.07.07,2.54.07.44,0,1.72-.07,2.46-.07.26,0,.37.07.37.17,0,.15-.11.22-.3.22-.2.02-.28.02-.5.07-.52.09-.67.41-.72,1.04-.06.59-.06,1.02-.06,3.85v3.26c0,1.74.02,3.15.11,3.94.04.5.2.89.76.96.28.07.54.07.83.09.24,0,.33.11.33.2,0,.13-.15.2-.37.2-1.28,0-2.52-.07-2.98-.07-.37,0-1.67.07-2.43.07-.26,0-.39-.07-.39-.2,0-.09.09-.2.33-.2.26-.02.41-.02.59-.07.37-.09.54-.41.59-.93.11-.78.11-2.17.11-3.98v-3.26Z"/><path class="cls-3" d="m148.6,218.68c0,1.65,0,3.11.09,3.91.07.5.17.91.76.98.26.04.65.07.94.09.22,0,.33.09.33.17,0,.13-.13.22-.39.22-1.26,0-2.59-.07-3.07-.07-.43,0-1.76.07-2.5.07-.26,0-.39-.09-.39-.22,0-.09.09-.17.33-.17.26-.02.48-.02.65-.07.41-.09.52-.48.59-1.02.09-.78.09-2.17.09-3.89v-7.52c-.72,0-2.15,0-3.02.07-1.11.09-1.43.17-1.7.65-.13.24-.17.39-.26.61-.04.13-.11.22-.22.22-.13,0-.17-.11-.17-.33.02-.39.37-1.93.41-2.17.04-.26.11-.39.22-.39.15,0,.33.17.8.22.52.07,1.3.11,1.96.11h7.7c.61,0,1.02-.07,1.3-.11.28-.04.43-.09.54-.09.13,0,.15.11.15.44,0,.37-.09,1.72-.09,2.2-.02.2-.06.3-.2.3-.15,0-.17-.11-.2-.37,0-.07-.02-.15-.02-.24-.04-.5-.5-1-2.11-1.02-.52-.04-1.33-.06-2.52-.09v7.52Z"/><path class="cls-3" d="m157.28,215.42c0-2.83,0-3.26-.04-3.87-.04-.61-.24-.91-.65-1-.2-.04-.43-.07-.67-.09-.2,0-.3-.07-.3-.22,0-.11.13-.17.43-.17.76,0,2.07.07,2.54.07.44,0,1.72-.07,2.46-.07.26,0,.37.07.37.17,0,.15-.11.22-.3.22-.2.02-.28.02-.5.07-.52.09-.67.41-.72,1.04-.06.59-.06,1.02-.06,3.85v3.26c0,1.74.02,3.15.11,3.94.04.5.2.89.76.96.28.07.54.07.83.09.24,0,.33.11.33.2,0,.13-.15.2-.37.2-1.28,0-2.52-.07-2.98-.07-.37,0-1.67.07-2.43.07-.26,0-.39-.07-.39-.2,0-.09.09-.2.33-.2.26-.02.41-.02.59-.07.37-.09.54-.41.59-.93.11-.78.11-2.17.11-3.98v-3.26Z"/><path class="cls-3" d="m164.13,217.08c0-3.26,2.17-7.26,7.89-7.26,4.78,0,7.7,2.94,7.7,6.91,0,4.24-2.98,7.57-7.87,7.57-5.46,0-7.72-3.94-7.72-7.22Zm12.76.35c0-3.94-2.26-6.63-5.44-6.63-2.13,0-4.52,1.09-4.52,5.65,0,3.78,2.07,6.83,5.68,6.83,1.33,0,4.28-.54,4.28-5.85Z"/><path class="cls-3" d="m183.71,210.44c0-.41.06-.67.28-.67.2,0,.37.22.7.54.35.3,2.89,2.94,6,5.85,1.41,1.35,3.85,3.83,4.2,4.13l-.17-8.04c-.02-1.11-.17-1.48-.7-1.67-.28-.09-.72-.09-.98-.11-.24,0-.33-.11-.33-.22,0-.15.22-.17.48-.17.96,0,1.94.07,2.41.07.24,0,1.02-.07,1.93-.07.24,0,.41.04.41.2,0,.11-.09.2-.33.2-.2.02-.35.02-.54.07-.57.15-.74.52-.76,1.57-.09,2.78-.13,7.63-.2,11.5,0,.5-.11.67-.28.67-.24,0-.52-.24-.94-.61-1.22-1.11-3.54-3.35-5.35-5.09-1.91-1.78-4.04-4.04-4.57-4.59l.2,7.54c.04,1.41.26,1.87.65,2,.33.11.7.11,1.02.13.2,0,.33.07.33.17,0,.15-.17.22-.43.22-1.13,0-1.89-.07-2.39-.07-.24,0-1.24.07-2.17.07-.24,0-.41-.02-.41-.2,0-.11.11-.2.3-.2.24-.02.57-.02.83-.09.54-.15.63-.63.65-2.24.04-3.91.15-8.46.15-10.89Z"/><path class="cls-3" d="m203.19,219.47c-.09,0-.13.04-.17.15l-.96,2.37c-.17.46-.28.91-.28,1.13,0,.54.67.57,1.09.57.26,0,.33.09.33.17,0,.15-.15.2-.35.2-.67,0-1.46-.07-2.13-.07-.22,0-1.3.07-2.3.07-.24,0-.35-.04-.35-.2,0-.11.11-.2.26-.2,1.37-.13,1.67-.39,2.17-1.65l4.61-10.89c.39-1.02.61-1.44.85-1.44.17,0,.28.2.5.67.37,1.07,3.59,8.48,4.81,11.26.7,1.63,1.24,1.91,1.7,2,.2.04.52.04.72.04.24,0,.33.09.33.2,0,.13-.09.2-.37.2-.91,0-3.2.04-4.57-.04-.2-.02-.33-.07-.33-.17,0-.09.09-.13.2-.17.2-.07.35-.13.22-.39l-1.48-3.67c-.02-.09-.09-.13-.17-.13h-4.31Zm3.89-1.09c.11,0,.11-.04.09-.11l-1.7-4.44c-.06-.17-.13-.22-.22,0l-1.72,4.44c-.02.07,0,.11.09.11h3.46Z"/><path class="cls-3" d="m218.72,218.68c0,2.28,0,3.57.39,3.89.3.3.78.43,2.3.43,1,0,1.74-.02,2.24-.48.26-.24.5-.74.57-1.2.04-.17.07-.35.22-.35s.17.15.17.37c0,.24-.17,1.72-.33,2.24-.13.44-.22.5-1.17.5-1.94,0-3.7-.11-5.74-.11-.78,0-1.59.07-2.48.07-.26,0-.41-.07-.41-.2,0-.09.11-.17.33-.2.24-.02.46-.02.61-.07.46-.11.59-.46.65-1.17.09-.76.09-2.15.09-3.74v-3.26c0-2.83,0-3.26-.04-3.85-.04-.61-.2-.89-.78-1.02-.15-.04-.41-.07-.65-.09-.22,0-.35-.07-.35-.2s.15-.2.46-.2c.91,0,2.09.07,2.65.07.41,0,1.98-.07,2.72-.07.3,0,.41.07.41.2s-.11.2-.37.2c-.22.02-.48.02-.72.09-.52.09-.67.39-.72,1.04-.04.59-.04,1-.04,3.87v3.22Z"/><path class="cls-3" d="m232.69,219.4c0-2.54,2.17-4.35,3.48-4.98-.91-1.22-1.02-2.13-1.04-3.11-.02-1.72,1.5-4,5.28-4,1.07,0,2.04.22,2.63.46.37.13.37.3.37.57,0,.72-.17,2.46-.24,2.78-.04.33-.13.37-.26.37s-.15-.09-.15-.41c0-.57-.15-1.26-.63-1.83-.44-.52-1.2-.98-2.41-.98-.91,0-2.33.63-2.33,2.48,0,2.04,1.87,3.78,3.61,5.72.74.85,3.41,3.26,3.83,3.63.43-.61,1.04-2.02,1.04-3.35,0-.33-.09-.72-.41-1-.28-.26-.7-.3-1.02-.33-.13,0-.35-.04-.35-.17,0-.17.22-.22.39-.22.52,0,1.39.04,2.61.15.52.04.74.17.74.44,0,1.67-.89,3.7-2.13,5.15,1.46,1.2,2.44,1.78,3.02,2.13.7.41,1.67.72,2.33.76.2.02.3.04.3.2,0,.13-.15.2-.63.2h-1.7c-2.48,0-3.35-.11-5.22-1.54-.72.65-2.09,1.85-5.07,1.85-4.65,0-6.04-2.94-6.04-4.96Zm10.26,2.41c-2.76-2.61-4.13-4.13-6.22-6.57-.74.54-1.44,1.54-1.44,3.28,0,2.72,1.94,4.44,4.26,4.44,1.67,0,2.94-.72,3.39-1.15Z"/><path class="cls-3" d="m276.25,221.25c.2,1.37.41,2,1.07,2.2.63.2,1.07.22,1.35.22.2,0,.35.02.35.15,0,.17-.26.24-.57.24-.54,0-3.54-.07-4.41-.13-.5-.04-.63-.11-.63-.24,0-.11.09-.17.24-.24.13-.04.2-.33.11-.93l-1.33-9.7-4.81,10c-.5,1.02-.61,1.22-.8,1.22s-.41-.44-.76-1.09c-.52-1-2.24-4.33-2.5-4.94-.2-.46-1.57-3.35-2.33-4.98l-1.15,8.81c-.04.39-.07.67-.07,1.02,0,.41.28.61.65.7.39.09.7.11.91.11.17,0,.33.04.33.15,0,.2-.2.24-.52.24-.91,0-1.89-.07-2.28-.07-.41,0-1.46.07-2.15.07-.22,0-.39-.04-.39-.24,0-.11.13-.15.35-.15.17,0,.33,0,.65-.07.61-.13.78-.98.89-1.72l2.15-14.18c.07-.37.2-.57.37-.57s.3.11.59.67l5.94,12.26,5.91-12.42c.17-.35.28-.52.48-.52s.33.22.39.67l1.98,13.44Z"/><path class="cls-3" d="m280.06,217.08c0-3.26,2.17-7.26,7.89-7.26,4.78,0,7.7,2.94,7.7,6.91,0,4.24-2.98,7.57-7.87,7.57-5.46,0-7.72-3.94-7.72-7.22Zm12.76.35c0-3.94-2.26-6.63-5.44-6.63-2.13,0-4.52,1.09-4.52,5.65,0,3.78,2.07,6.83,5.68,6.83,1.33,0,4.28-.54,4.28-5.85Z"/><path class="cls-3" d="m299.97,215.42c0-2.78,0-3.26-.04-3.85-.04-.61-.17-1-.83-1.07l-.74-.06c-.22,0-.33-.07-.33-.2s.13-.17.41-.17c.91,0,2.22.07,2.8.07.63,0,1.74-.07,3-.07,2.57,0,5.52.09,7.57,2.13.96.93,1.85,2.48,1.85,4.7s-1.02,4.07-2.09,5.13c-.89.87-2.76,2.17-6.35,2.17-1.39,0-3.11-.22-4.04-.22-.52,0-1.7.07-2.5.07-.26,0-.37-.07-.37-.2,0-.09.11-.2.33-.2s.44-.02.67-.07c.74-.13.65-2,.65-4.91v-3.26Zm2.57,2.04c0,1.96.02,3.33.04,3.67.02.52.04,1.09.24,1.39.22.35,1.02.72,2.41.72,1.83,0,3.02-.35,4.15-1.33,1.2-1,1.54-2.63,1.54-4.52,0-2.22-.96-3.67-1.78-4.5-1.65-1.61-3.72-1.87-5.15-1.87-.39,0-1.09.06-1.22.17-.2.15-.24.2-.24,3.98v2.28Z"/><path class="cls-3" d="m317.98,215.42c0-2.83,0-3.33-.04-3.94-.04-.61-.2-.85-.78-.98-.17-.04-.48-.04-.74-.06-.22,0-.33-.07-.33-.2s.13-.17.44-.17c.91,0,1.78.07,2.74.07.59,0,4.57,0,4.91-.02.37-.04.7-.09.87-.11.11-.02.22-.09.3-.09.11,0,.13.09.13.17,0,.13-.13.39-.17,1.17-.02.35-.04.72-.09,1.28,0,.11-.04.3-.22.3-.13,0-.17-.11-.2-.35,0-.09,0-.37-.11-.61-.13-.35-.3-.54-1.24-.65-.37-.04-2.33-.09-2.76-.09-.09,0-.13.07-.13.2v4.5c0,.13.02.2.13.2.46,0,2.54,0,3.02-.02.54-.04.83-.11,1-.3.13-.17.22-.24.3-.24s.13.04.13.15c0,.13-.09.54-.15,1.44,0,.37-.06,1.15-.06,1.3s-.02.35-.2.35c-.13,0-.2-.2-.2-.3-.02-.17-.02-.28-.07-.5-.11-.41-.33-.7-1.09-.76-.39-.04-2.22-.07-2.7-.07-.11,0-.13.09-.13.2v1.41c0,.63-.02,2.15,0,2.72.04,1.28.33,1.57,2.33,1.57.5,0,1.3,0,1.78-.22.5-.24.72-.61.87-1.39.04-.2.09-.3.24-.3s.15.17.15.37c0,.48-.15,1.8-.26,2.17-.13.48-.3.48-1.02.48-1.89,0-3.52-.11-5.46-.11-.78,0-1.57.07-2.48.07-.26,0-.39-.07-.39-.2,0-.09.07-.2.33-.2.26-.02.5-.02.67-.07.39-.09.5-.5.56-1.15.09-.76.09-2.17.09-3.76v-3.26Z"/><path class="cls-3" d="m330.35,215.42c0-2.83,0-3.24-.04-3.83-.04-.65-.22-.94-.8-1.04-.24-.04-.5-.07-.74-.09-.22,0-.33-.07-.33-.2s.13-.2.41-.2c.98,0,2.3.07,2.67.07.59,0,2.13-.07,2.78-.07,1.3,0,2.59.13,3.57.76.61.39,1.41,1.33,1.41,2.59,0,1.39-.65,2.63-2.54,4.04,1.61,2,2.96,3.72,4.09,4.87,1.04,1.11,1.76,1.2,2.11,1.28.2.02.35.02.5.04.17,0,.26.09.26.17,0,.15-.13.22-.37.22h-1.83c-1.26,0-1.8-.13-2.35-.41-.76-.41-1.48-1.26-2.48-2.63-.78-1.09-1.59-2.24-1.87-2.57-.07-.09-.17-.11-.3-.11l-1.54-.04c-.09,0-.15.04-.15.15v.39c0,1.67,0,2.96.09,3.72.04.54.17.96.76,1.02.26.07.65.07.91.09.17,0,.24.09.24.17,0,.13-.13.22-.37.22-1.15,0-2.67-.07-2.96-.07-.33,0-1.65.07-2.41.07-.24,0-.37-.07-.37-.2,0-.09.09-.2.3-.2.28-.02.52-.02.7-.07.37-.09.5-.48.54-1.04.11-.76.11-2.15.11-3.87v-3.26Zm2.46,1.41c0,.17.04.26.17.3.39.15.96.22,1.46.22.7,0,1-.09,1.33-.33.54-.39,1.07-1.2,1.07-2.67,0-2.63-1.8-3.33-2.89-3.33-.46,0-.8.02-.98.09-.11.04-.15.11-.15.26v5.46Z"/><path class="cls-3" d="m345.62,210.44c0-.41.06-.67.28-.67.2,0,.37.22.7.54.35.3,2.89,2.94,6,5.85,1.41,1.35,3.85,3.83,4.2,4.13l-.17-8.04c-.02-1.11-.17-1.48-.7-1.67-.28-.09-.72-.09-.98-.11-.24,0-.33-.11-.33-.22,0-.15.22-.17.48-.17.96,0,1.94.07,2.41.07.24,0,1.02-.07,1.93-.07.24,0,.41.04.41.2,0,.11-.09.2-.33.2-.2.02-.35.02-.54.07-.57.15-.74.52-.76,1.57-.09,2.78-.13,7.63-.2,11.5,0,.5-.11.67-.28.67-.24,0-.52-.24-.94-.61-1.22-1.11-3.54-3.35-5.35-5.09-1.91-1.78-4.04-4.04-4.57-4.59l.2,7.54c.04,1.41.26,1.87.65,2,.33.11.7.11,1.02.13.2,0,.33.07.33.17,0,.15-.17.22-.43.22-1.13,0-1.89-.07-2.39-.07-.24,0-1.24.07-2.17.07-.24,0-.41-.02-.41-.2,0-.11.11-.2.3-.2.24-.02.57-.02.83-.09.54-.15.63-.63.65-2.24.04-3.91.15-8.46.15-10.89Z"/><path class="cls-3" d="m371.07,213.92c0-3.3,0-3.91-.04-4.61-.04-.74-.22-1.09-.93-1.24-.17-.04-.54-.07-.85-.07-.24,0-.37-.04-.37-.2s.15-.2.48-.2c1.15,0,2.52.07,2.96.07,1.07,0,1.91-.07,2.65-.07,3.94,0,4.63,2.11,4.63,3.26,0,1.78-1.02,2.85-2.22,3.8,1.78.61,3.96,2.15,3.96,4.7,0,2.33-1.8,4.74-5.81,4.74-1,0-2-.13-3.15-.13-.87,0-1.76.07-2.74.07-.28,0-.43-.07-.43-.22,0-.11.09-.17.35-.17.33,0,.63-.04.83-.11.41-.13.5-.54.59-1.17.11-.91.11-2.63.11-4.63v-3.83Zm2.61.37c0,.17.07.22.15.24.2.04.52.07,1.02.07.72,0,1.2-.09,1.57-.41.57-.46.89-1.24.89-2.3,0-1.46-.85-3.37-2.72-3.37-.3,0-.5,0-.72.04-.15.04-.2.13-.2.37v5.37Zm0,2.96v3.54c0,1.43.07,1.8.76,2.09.59.24,1.09.26,1.59.26.98,0,2.63-.52,2.63-2.78,0-1.35-.46-3.17-2.11-4.33-.46-.33-.96-.48-1.81-.52-.39-.02-.61-.02-.93-.02-.09,0-.13.04-.13.15v1.61Z"/><path class="cls-3" d="m383.79,217.08c0-3.26,2.17-7.26,7.89-7.26,4.78,0,7.7,2.94,7.7,6.91,0,4.24-2.98,7.57-7.87,7.57-5.46,0-7.72-3.94-7.72-7.22Zm12.76.35c0-3.94-2.26-6.63-5.44-6.63-2.13,0-4.52,1.09-4.52,5.65,0,3.78,2.07,6.83,5.68,6.83,1.33,0,4.28-.54,4.28-5.85Z"/><path class="cls-3" d="m404.67,219.47c-.09,0-.13.04-.17.15l-.96,2.37c-.17.46-.28.91-.28,1.13,0,.54.67.57,1.09.57.26,0,.33.09.33.17,0,.15-.15.2-.35.2-.67,0-1.46-.07-2.13-.07-.22,0-1.3.07-2.3.07-.24,0-.35-.04-.35-.2,0-.11.11-.2.26-.2,1.37-.13,1.67-.39,2.17-1.65l4.61-10.89c.39-1.02.61-1.44.85-1.44.17,0,.28.2.5.67.37,1.07,3.59,8.48,4.81,11.26.7,1.63,1.24,1.91,1.7,2,.2.04.52.04.72.04.24,0,.33.09.33.2,0,.13-.09.2-.37.2-.91,0-3.2.04-4.57-.04-.2-.02-.33-.07-.33-.17,0-.09.09-.13.2-.17.2-.07.35-.13.22-.39l-1.48-3.67c-.02-.09-.09-.13-.17-.13h-4.31Zm3.89-1.09c.11,0,.11-.04.09-.11l-1.7-4.44c-.06-.17-.13-.22-.22,0l-1.72,4.44c-.02.07,0,.11.09.11h3.46Z"/><path class="cls-3" d="m422.66,218.68c0,1.65,0,3.11.09,3.91.07.5.17.91.76.98.26.04.65.07.94.09.22,0,.33.09.33.17,0,.13-.13.22-.39.22-1.26,0-2.59-.07-3.07-.07-.43,0-1.76.07-2.5.07-.26,0-.39-.09-.39-.22,0-.09.09-.17.33-.17.26-.02.48-.02.65-.07.41-.09.52-.48.59-1.02.09-.78.09-2.17.09-3.89v-7.52c-.72,0-2.15,0-3.02.07-1.11.09-1.43.17-1.7.65-.13.24-.17.39-.26.61-.04.13-.11.22-.22.22-.13,0-.17-.11-.17-.33.02-.39.37-1.93.41-2.17.04-.26.11-.39.22-.39.15,0,.33.17.8.22.52.07,1.3.11,1.96.11h7.7c.61,0,1.02-.07,1.3-.11.28-.04.43-.09.54-.09.13,0,.15.11.15.44,0,.37-.09,1.72-.09,2.2-.02.2-.06.3-.2.3-.15,0-.17-.11-.2-.37,0-.07-.02-.15-.02-.24-.04-.5-.5-1-2.11-1.02-.52-.04-1.33-.06-2.52-.09v7.52Z"/><path class="cls-3" d="m438.28,213.92c0-3.3,0-3.91-.04-4.61-.04-.74-.22-1.09-.93-1.24-.17-.04-.54-.07-.85-.07-.24,0-.37-.04-.37-.2s.15-.2.48-.2c1.15,0,2.52.07,2.96.07,1.07,0,1.91-.07,2.65-.07,3.94,0,4.63,2.11,4.63,3.26,0,1.78-1.02,2.85-2.22,3.8,1.78.61,3.96,2.15,3.96,4.7,0,2.33-1.8,4.74-5.81,4.74-1,0-2-.13-3.15-.13-.87,0-1.76.07-2.74.07-.28,0-.43-.07-.43-.22,0-.11.09-.17.35-.17.33,0,.63-.04.83-.11.41-.13.5-.54.59-1.17.11-.91.11-2.63.11-4.63v-3.83Zm2.61.37c0,.17.07.22.15.24.2.04.52.07,1.02.07.72,0,1.2-.09,1.57-.41.57-.46.89-1.24.89-2.3,0-1.46-.85-3.37-2.72-3.37-.3,0-.5,0-.72.04-.15.04-.2.13-.2.37v5.37Zm0,2.96v3.54c0,1.43.07,1.8.76,2.09.59.24,1.09.26,1.59.26.98,0,2.63-.52,2.63-2.78,0-1.35-.46-3.17-2.11-4.33-.46-.33-.96-.48-1.81-.52-.39-.02-.61-.02-.93-.02-.09,0-.13.04-.13.15v1.61Z"/><path class="cls-3" d="m454.85,218.05c0,2.67.52,3.78,1.5,4.52.83.63,1.67.7,2.28.7.8,0,1.8-.22,2.54-.93,1.07-1,1.09-2.72,1.09-4.61v-2.31c0-2.78-.04-3.24-.07-3.83-.04-.63-.15-.94-.78-1.04-.15-.04-.43-.07-.7-.09-.22,0-.33-.07-.33-.2s.11-.2.41-.2c.98,0,2.2.07,2.26.07.26,0,1.46-.07,2.24-.07.28,0,.41.07.41.2s-.11.2-.35.2c-.22.02-.33.02-.57.09-.5.09-.63.37-.67,1.02-.04.59-.07,1.07-.07,3.85v1.96c0,2.07-.2,4.26-1.85,5.61-1.33,1.09-2.72,1.3-3.98,1.3-1.13,0-2.96-.11-4.31-1.28-.98-.83-1.72-2.17-1.72-4.87v-2.72c0-2.83,0-3.26-.04-3.87-.04-.59-.17-.87-.76-1-.17-.04-.52-.07-.78-.09-.22,0-.35-.09-.35-.22s.15-.17.46-.17c.98,0,2.3.07,2.8.07.41,0,1.83-.07,2.5-.07.3,0,.43.07.43.2s-.13.2-.33.2c-.2.02-.35.04-.57.09-.52.09-.67.41-.7,1.04-.04.59-.04,1.13-.04,3.83v2.63Z"/><path class="cls-3" d="m469.47,215.42c0-2.83,0-3.26-.04-3.87-.04-.61-.24-.91-.65-1-.2-.04-.43-.07-.67-.09-.2,0-.3-.07-.3-.22,0-.11.13-.17.43-.17.76,0,2.07.07,2.54.07.44,0,1.72-.07,2.46-.07.26,0,.37.07.37.17,0,.15-.11.22-.3.22-.2.02-.28.02-.5.07-.52.09-.67.41-.72,1.04-.06.59-.06,1.02-.06,3.85v3.26c0,1.74.02,3.15.11,3.94.04.5.2.89.76.96.28.07.54.07.83.09.24,0,.33.11.33.2,0,.13-.15.2-.37.2-1.28,0-2.52-.07-2.98-.07-.37,0-1.67.07-2.43.07-.26,0-.39-.07-.39-.2,0-.09.09-.2.33-.2.26-.02.41-.02.59-.07.37-.09.54-.41.59-.93.11-.78.11-2.17.11-3.98v-3.26Z"/><path class="cls-3" d="m480.89,218.68c0,2.28,0,3.57.39,3.89.3.3.78.43,2.3.43,1,0,1.74-.02,2.24-.48.26-.24.5-.74.57-1.2.04-.17.07-.35.22-.35s.17.15.17.37c0,.24-.17,1.72-.33,2.24-.13.44-.22.5-1.17.5-1.94,0-3.7-.11-5.74-.11-.78,0-1.59.07-2.48.07-.26,0-.41-.07-.41-.2,0-.09.11-.17.33-.2.24-.02.46-.02.61-.07.46-.11.59-.46.65-1.17.09-.76.09-2.15.09-3.74v-3.26c0-2.83,0-3.26-.04-3.85-.04-.61-.2-.89-.78-1.02-.15-.04-.41-.07-.65-.09-.22,0-.35-.07-.35-.2s.15-.2.46-.2c.91,0,2.09.07,2.65.07.41,0,1.98-.07,2.72-.07.3,0,.41.07.41.2s-.11.2-.37.2c-.22.02-.48.02-.72.09-.52.09-.67.39-.72,1.04-.04.59-.04,1-.04,3.87v3.22Z"/><path class="cls-3" d="m490.22,215.42c0-2.78,0-3.26-.04-3.85-.04-.61-.17-1-.83-1.07l-.74-.06c-.22,0-.33-.07-.33-.2s.13-.17.41-.17c.91,0,2.22.07,2.8.07.63,0,1.74-.07,3-.07,2.57,0,5.52.09,7.57,2.13.96.93,1.85,2.48,1.85,4.7s-1.02,4.07-2.09,5.13c-.89.87-2.76,2.17-6.35,2.17-1.39,0-3.11-.22-4.04-.22-.52,0-1.7.07-2.5.07-.26,0-.37-.07-.37-.2,0-.09.11-.2.33-.2s.44-.02.67-.07c.74-.13.65-2,.65-4.91v-3.26Zm2.57,2.04c0,1.96.02,3.33.04,3.67.02.52.04,1.09.24,1.39.22.35,1.02.72,2.41.72,1.83,0,3.02-.35,4.15-1.33,1.2-1,1.54-2.63,1.54-4.52,0-2.22-.96-3.67-1.78-4.5-1.65-1.61-3.72-1.87-5.15-1.87-.39,0-1.09.06-1.22.17-.2.15-.24.2-.24,3.98v2.28Z"/><path class="cls-3" d="m508.23,215.42c0-2.83,0-3.26-.04-3.87-.04-.61-.24-.91-.65-1-.2-.04-.43-.07-.67-.09-.2,0-.3-.07-.3-.22,0-.11.13-.17.43-.17.76,0,2.07.07,2.54.07.44,0,1.72-.07,2.46-.07.26,0,.37.07.37.17,0,.15-.11.22-.3.22-.2.02-.28.02-.5.07-.52.09-.67.41-.72,1.04-.06.59-.06,1.02-.06,3.85v3.26c0,1.74.02,3.15.11,3.94.04.5.2.89.76.96.28.07.54.07.83.09.24,0,.33.11.33.2,0,.13-.15.2-.37.2-1.28,0-2.52-.07-2.98-.07-.37,0-1.67.07-2.43.07-.26,0-.39-.07-.39-.2,0-.09.09-.2.33-.2.26-.02.41-.02.59-.07.37-.09.54-.41.59-.93.11-.78.11-2.17.11-3.98v-3.26Z"/><path class="cls-3" d="m516.76,210.44c0-.41.06-.67.28-.67.2,0,.37.22.7.54.35.3,2.89,2.94,6,5.85,1.41,1.35,3.85,3.83,4.2,4.13l-.17-8.04c-.02-1.11-.17-1.48-.7-1.67-.28-.09-.72-.09-.98-.11-.24,0-.33-.11-.33-.22,0-.15.22-.17.48-.17.96,0,1.94.07,2.41.07.24,0,1.02-.07,1.93-.07.24,0,.41.04.41.2,0,.11-.09.2-.33.2-.2.02-.35.02-.54.07-.57.15-.74.52-.76,1.57-.09,2.78-.13,7.63-.2,11.5,0,.5-.11.67-.28.67-.24,0-.52-.24-.94-.61-1.22-1.11-3.54-3.35-5.35-5.09-1.91-1.78-4.04-4.04-4.57-4.59l.2,7.54c.04,1.41.26,1.87.65,2,.33.11.7.11,1.02.13.2,0,.33.07.33.17,0,.15-.17.22-.43.22-1.13,0-1.89-.07-2.39-.07-.24,0-1.24.07-2.17.07-.24,0-.41-.02-.41-.2,0-.11.11-.2.3-.2.24-.02.57-.02.83-.09.54-.15.63-.63.65-2.24.04-3.91.15-8.46.15-10.89Z"/><path class="cls-3" d="m547.07,222.71c0,.61-.04.65-.28.78-1.2.59-3.09.8-4.61.8-4.83,0-8.92-2.17-8.92-7.24,0-2.98,1.61-5.02,3.35-6.04,1.87-1.07,3.65-1.2,5.22-1.2,1.3,0,2.87.2,3.35.3.43.06,1.11.17,1.57.2.22.02.24.13.24.26,0,.22-.15.76-.15,3.11,0,.3-.07.39-.22.39s-.17-.11-.2-.26c-.07-.39-.13-.91-.59-1.41-.52-.72-2.07-1.59-4.31-1.59-1.13,0-2.5.13-3.74,1.2-1.02.87-1.65,2.2-1.65,4.39,0,3.83,2.44,6.87,6.48,6.87.46,0,1.09,0,1.5-.22.28-.11.35-.35.35-.65v-1.57c0-.89,0-1.54-.02-2.13-.02-.72-.2-1.07-.85-1.15-.17-.02-.46-.04-.74-.06-.17,0-.3-.09-.3-.2,0-.13.13-.17.41-.17,1.04,0,2.28.04,2.87.04s1.65-.04,2.37-.04c.24,0,.39.04.39.17,0,.11-.11.17-.26.2-.24.02-.28.02-.52.04-.54.07-.7.41-.72,1.04-.02.59-.02,1.3-.02,2.24v1.89Z"/><polygon class="cls-3" points="577.03 190.33 581.42 183.41 576.32 183.41 572.88 188.83 570.98 188.83 43.46 188.83 41.55 188.83 38.12 183.41 33.02 183.41 37.41 190.33 33.02 197.24 38.12 197.24 41.55 191.83 43.46 191.83 570.98 191.83 572.88 191.83 576.32 197.24 581.42 197.24 577.03 190.33"/><path class="cls-2" d="m309.87,8c41.21,0,81.16,4.56,118.75,13.55,36.17,8.65,68.61,21.01,96.42,36.73,27.49,15.54,49,33.55,63.94,53.52,15.1,20.19,22.76,41.52,22.76,63.41s-7.66,43.22-22.76,63.41c-14.94,19.97-36.45,37.98-63.94,53.52-27.81,15.72-60.25,28.08-96.42,36.73-37.59,8.99-77.55,13.55-118.75,13.55s-81.16-4.56-118.75-13.55c-36.17-8.65-68.61-21.01-96.42-36.73-27.49-15.54-49-33.55-63.94-53.52-15.1-20.19-22.76-41.52-22.76-63.41s7.66-43.22,22.76-63.41c14.94-19.97,36.45-37.98,63.94-53.52,27.81-15.72,60.25-28.08,96.42-36.73,37.59-8.99,77.55-13.55,118.75-13.55m0-8C138.73,0,0,78.44,0,175.21s138.73,175.21,309.87,175.21,309.87-78.44,309.87-175.21S481,0,309.87,0h0Z"/></g></svg>