<svg width="227" height="163" viewBox="0 0 227 163" fill="none" xmlns="http://www.w3.org/2000/svg">
<path d="M103.855 0C102.775 0 101.728 0.850073 100.451 1.27511C98.3239 1.92901 95.7709 1.92901 91.7122 2.12518C86.8026 2.32135 43.6304 2.32135 35.5459 2.32135C24.4828 2.32135 14.6962 1.66745 4.90965 1.66745C1.70201 1.66745 0 2.09249 0 3.79263C0 5.06774 1.50562 5.49278 3.60041 5.49278C6.57893 5.49278 10.2121 5.68895 11.9141 6.11398C18.9512 7.61796 20.6533 11.0183 21.046 18.2439C21.4715 25.0444 21.4715 30.995 21.4715 63.2977V100.701C21.4715 121.103 21.4715 137.058 20.4241 145.951C19.5731 152.13 18.5257 156.806 14.238 157.656C12.3396 158.081 9.78657 158.506 6.57893 158.506C4.25503 158.506 3.40402 159.127 3.40402 160.206C3.40402 161.906 4.90965 162.331 7.85544 162.331C15.94 162.331 29.3597 161.677 34.8912 161.677C40.4228 161.677 53.8425 162.331 67.2295 162.331C70.4371 162.331 71.91 161.677 71.91 160.206C71.91 159.127 71.059 158.506 68.2768 158.506C65.2983 158.506 60.6178 158.081 57.6393 157.656C51.2567 156.806 49.9802 152.13 49.3256 145.951C48.2455 137.025 48.2455 121.103 48.2455 100.701V83.4706C48.2455 81.9666 48.671 81.5743 49.7511 81.5743C53.3842 81.5743 75.9359 81.5743 81.2383 82.2282C87.8172 83.0783 91.0249 86.9036 92.0723 89.8788C92.9233 92.4291 93.3488 94.9793 93.3488 96.4506C93.3488 97.9218 93.7743 99.4258 95.0508 99.4258C97.1783 99.4258 97.1783 97.3006 97.1783 95.4043C97.1783 93.9003 97.6038 84.1245 98.0293 79.8741C98.6839 73.3024 99.7313 67.9731 99.7313 66.698C99.7313 65.4229 99.3058 64.769 98.4548 64.769C97.1783 64.769 96.7528 65.6191 95.7054 66.8942C92.7269 70.9484 89.3229 70.9484 76.9833 70.9484C69.3242 70.9484 55.479 71.1445 49.7511 71.1445C48.4746 71.1445 48.2455 70.5233 48.2455 69.2482V16.1514C48.2455 13.83 48.9001 13.1761 50.1439 13.1761C56.5264 13.3723 75.4777 13.6012 82.9076 13.83C90.9922 14.0262 95.4436 17.2303 96.9492 20.2056C98.2257 23.1808 98.2257 26.5811 98.2257 28.2813C98.4221 30.6026 98.8476 31.6816 100.353 31.6816C101.859 31.6816 102.252 30.4064 102.481 28.7063C102.906 26.1561 103.332 13.6012 103.561 11.476C104.183 5.95051 105.263 3.40029 105.263 1.92901C105.263 0.850073 104.608 0.0326951 103.757 0.0326951L103.855 0Z" fill="#F2F2F2"/>
<path d="M188.202 70.0848C199.92 60.734 209.903 50.3369 209.903 32.8777C209.903 21.5979 203.095 1 164.57 1C157.337 1 149.023 1.6539 138.615 1.6539C134.36 1.6539 120.973 1 109.681 1C106.473 1 105 1.42504 105 2.89632C105 4.3676 106.276 4.82533 108.633 4.82533C111.612 4.82533 115.212 5.0215 116.947 5.44653C123.951 6.95051 125.686 10.3508 126.079 17.5764C126.504 24.377 126.504 30.3275 126.504 62.6303V100.033C126.504 119.585 126.504 136.39 125.424 145.284C124.573 151.463 123.722 155.484 119.696 156.759C117.798 157.381 114.787 157.838 111.612 157.838C109.059 157.838 108.208 158.46 108.208 159.539C108.208 161.043 109.713 161.664 112.463 161.664C122.02 161.664 130.759 161.01 139.269 161.01C150.562 161.01 160.348 162.285 170.135 162.285C209.281 162.285 226.956 138.712 226.956 115.956C226.956 91.075 205.68 76.0026 188.235 70.0521L188.202 70.0848ZM152.034 13.7511C152.034 11.4297 152.46 10.5797 153.933 10.1546C156.06 9.72959 157.959 9.72959 160.937 9.72959C179.234 9.72959 187.548 28.4312 187.548 42.6863C187.548 53.0833 184.34 60.7667 178.808 65.2132C175.175 68.4173 170.495 69.2674 163.49 69.2674C158.581 69.2674 155.406 69.0385 153.507 68.6135C152.656 68.4173 152.002 67.9923 152.002 66.2921V13.7511H152.034ZM175.012 152.738C170.102 152.738 165.225 152.509 159.464 150.188C152.656 147.441 152.034 143.812 152.034 129.786V79.4029C152.034 78.3239 152.46 77.8989 153.311 77.8989C156.519 77.8989 158.613 77.8989 162.443 78.1278C170.757 78.5528 175.633 80.0241 180.118 83.2282C196.287 94.508 200.771 112.36 200.771 125.536C200.771 147.638 184.602 152.738 175.012 152.738Z" fill="#F2F2F2"/>
</svg>
