<svg width="1440" height="282" viewBox="0 0 1440 282" fill="none" xmlns="http://www.w3.org/2000/svg">
<g clip-path="url(#clip0_2729_101)">
<path d="M-10.5 106.5L-28 83.5H-81.5L73 118C195 135.8 304 158.999 464 147.999C624 136.999 800 59.6996 960 53.9996C1120 48.6996 1289.5 115.999 1369.5 131.999L1449.5 147.999L1440 262.285H1360C1280 262.285 1120 262.285 960 262.285C800 262.285 640 262.285 480 262.285C320 262.285 160 262.285 80 262.285H0L-10.5 106.5Z" fill="#4E6B84"/>
<path d="M0 122L80 132.7C160 143 320 165 480 154C640 143 800 101 960 95.3004C1120 90.0004 1280 122 1360 138L1440 154V282H1360C1280 282 1120 282 960 282C800 282 640 282 480 282C320 282 160 282 80 282H0V122Z" fill="#03111D"/>
</g>
<defs>
<clipPath id="clip0_2729_101">
<rect width="1440" height="282" fill="white"/>
</clipPath>
</defs>
</svg>
