<svg width="2559" height="240" viewBox="0 0 2559 240" fill="none" xmlns="http://www.w3.org/2000/svg">
<path opacity="0.25" d="M2558.5 129.104C2558.5 139.604 2559 237.605 2559 237.605H1840.5H1248.5V91.6032C1248.5 91.6032 1288 72.0307 1447 34.1049C1610.5 -4.89428 1796.5 -3.39499 1900 9.10356C1979.92 18.7545 2172 79.6035 2377 109.104C2574.73 137.558 2558.5 110.104 2558.5 129.104Z" fill="#7EDDFF"/>
<path d="M0 121.551C103 119.518 200 107.557 351.5 78.07C502.552 41.1829 701 -25.3869 965 10.0986C1193.5 37.5862 1229.3 65.9256 1405.5 109.557C1574 151.282 1833.04 194.973 2032.5 177.528C2247.04 158.763 2380.5 133.546 2440.5 127.549C2500.5 121.552 2559 121.052 2559 121.052V240H1279.5H0V121.551Z" fill="#0E2132"/>
</svg>
