<svg width="1440" height="219" viewBox="0 0 1440 219" fill="none" xmlns="http://www.w3.org/2000/svg">
<g clip-path="url(#clip0_2724_103)">
<path opacity="0.34" d="M599.499 95H568C568 95 423.53 71.103 519.53 70.6651C615.53 71.103 711.53 -7.70331 807.53 0.615131C903.53 8.34982 964.499 57 964.499 57L945.999 64L929.999 70.6651L908.499 80.5L884.999 87L864.499 95L834.999 110.489L813.499 115.5L786.499 121.5L715.999 127.5L649.499 110.489L623.999 100L599.499 95Z" fill="#7BB5DB"/>
<path d="M809 102L826.5 97L842 88L864 71.8571C864 71.8571 672 61.7411 576 52.2687C480 42.4286 384 13 288 13C192 13 96.0006 42.4286 48.0006 57.1429L93.5 71.8571L132 88L200.5 108L341 151L492 158.5L628 140L700 128.5L730.5 121.5L761.001 113.5L792 108L809 102Z" fill="#1743A1"/>
<path d="M0 11.783L60 36.4825C120 60.812 240 110.766 360 130.193C480 149.619 600 140.369 720 110.489C840 81.1637 960 31.2096 1080 11.783C1200 -7.64363 1320 1.60712 1380 6.88006L1440 11.783V219H1380C1320 219 1200 219 1080 219C960 219 840 219 720 219C600 219 480 219 360 219C240 219 120 219 60 219H0V11.783Z" fill="#0E2132"/>
</g>
<defs>
<clipPath id="clip0_2724_103">
<rect width="1440" height="219" fill="white"/>
</clipPath>
</defs>
</svg>
